<?xml version="1.0" standalone="no"?>
<!DOCTYPE svg PUBLIC "-//W3C//DTD SVG 1.1//EN" "http://www.w3.org/Graphics/SVG/1.1/DTD/svg11.dtd" >
<!--
2013-9-30: Created.
-->
<svg>
<metadata>
Created by iconfont
</metadata>
<defs>

<font id="iconfont" horiz-adv-x="1024" >
  <font-face
    font-family="iconfont"
    font-weight="500"
    font-stretch="normal"
    units-per-em="1024"
    ascent="896"
    descent="-128"
  />
    <missing-glyph />
    
    <glyph glyph-name="iconfontcha" unicode="&#58973;" d="M540.98944 300.233472l369.568768 369.568768c7.99744 7.998464 7.99744 20.965376 0 28.962816-7.998464 7.998464-20.9664 7.998464-28.96384 0L512.026624 329.197312 142.488576 698.733312c-7.998464 7.998464-20.965376 7.998464-28.962816 0s-7.998464-20.965376 0-28.962816l369.536-369.536L113.55648-69.272832c-7.998464-7.998464-7.998464-20.9664 0-28.96384 3.99872-3.99872 9.239552-5.997568 14.481408-5.997568s10.482688 1.998848 14.481408 5.997568l369.507328 369.507328 369.539072-369.539072c3.99872-3.99872 9.240576-5.997568 14.482432-5.997568s10.482688 1.998848 14.482432 5.997568c7.99744 7.998464 7.99744 20.9664 0 28.96384L540.98944 300.233472z"  horiz-adv-x="1024" />

    
    <glyph glyph-name="shoujizhuce" unicode="&#58887;" d="M512 808.5184c280.871822 0 508.563911-227.646578 508.563911-508.5184 0-280.849067-227.692089-508.541156-508.563911-508.541156l0 188.575289 77.550933 0c38.7072 0 80.213333-7.827911 105.904356 23.825067 10.922667 13.425778 15.200711 27.648 15.200711 49.948444L710.656 507.371378c0 16.884622 1.752178 48.241778-2.002489 62.987378-4.391822 17.385244-15.314489 30.401422-26.350933 38.0928-16.019911 11.127467-30.833778 11.787378-53.566578 11.787378L512 620.238933 512 808.5184 512 808.5184 512 808.5184zM512 24.316444c1.251556 0 2.503111 0.091022 3.822933 0.318578 10.945422 1.820444 20.434489 12.720356 17.794844 26.259911-1.797689 9.193244-10.808889 17.590044-21.617778 17.385244L512 24.316444 512 24.316444 512 24.316444zM512 112.585244l154.532978 0L666.532978 553.974756 512 553.974756 512 112.585244 512 112.585244 512 112.585244zM512 576.002133l44.214044 0L556.145778 598.234311 512 598.234311 512 576.002133 512 576.002133zM512-208.541156c-280.871822 0-508.541156 227.692089-508.541156 508.541156 0 280.871822 227.669333 508.5184 508.541156 508.5184l0-188.279467-77.368889 0c-18.0224 0-47.490844 1.706667-63.988622-0.773689-20.616533-3.026489-31.880533-12.0832-41.915733-23.028622-10.695111-11.559822-15.382756-28.945067-15.382756-49.902933l0-453.563733c0-17.544533-1.774933-47.650133 2.389333-62.941867 4.869689-17.8176 15.496533-29.650489 26.510222-37.865244 15.314489-11.559822 30.72-12.128711 53.202489-12.128711L512-19.965867 512-208.541156 512-208.541156 512-208.541156zM512 598.234311l-44.214044 0 0.113778-22.232178L512 576.002133 512 598.234311 512 598.234311 512 598.234311zM512 553.974756l-154.555733 0 0-441.161956 3.458844-0.318578 151.096889 0.091022L512 553.974756 512 553.974756 512 553.974756zM512 68.257422c-1.046756 0-2.139022-0.091022-3.231289-0.318578-28.330667-5.074489-22.1184-44.100267 3.231289-43.645156L512 68.257422 512 68.257422zM512 68.257422"  horiz-adv-x="1024" />

    
    <glyph glyph-name="yinliang" unicode="&#59090;" d="M799.152356 587.880533m-22.050133 0a0.969 0.969 0 1 0 44.100267 0 0.969 0.969 0 1 0-44.100267 0ZM687.149511 467.344356m-22.050133 0a0.969 0.969 0 1 0 44.100267 0 0.969 0.969 0 1 0-44.100267 0ZM687.354311 133.179022m-22.277689 0a0.979 0.979 0 1 0 44.555378 0 0.979 0.979 0 1 0-44.555378 0ZM780.288 17.034667m-22.277689 0a0.979 0.979 0 1 0 44.555378 0 0.979 0.979 0 1 0-44.555378 0ZM464.4864 661.722311l-188.324978-179.564089L159.288889 482.158222c-45.761422 0-68.266667-24.644267-68.266667-68.266667l0-227.555556c0-42.916978 23.233422-68.266667 68.266667-68.266667l116.872533 0 188.324978-179.564089C514.912711-108.826311 568.888889-87.982222 568.888889-9.361778L568.888889 609.566578C568.888889 689.028978 513.956978 708.075378 464.4864 661.722311zM523.377778 2.857956c0-51.677867-22.9376-43.167289-46.421333-19.979378-43.030756 42.439111-115.5072 118.784-173.761422 180.679111L182.044444 163.557689c-34.6112 0-45.511111 11.605333-45.511111 45.511111l0 182.044444c0 33.200356 11.605333 45.511111 45.511111 45.511111l114.187378 0c59.255467 57.435022 135.896178 131.868444 180.906667 175.9232C500.371911 635.325867 523.377778 649.047467 523.377778 595.230578 523.377778 484.046933 523.377778 111.811556 523.377778 2.857956zM673.291378 150.7008l31.812267-30.993067C747.656533 167.790222 773.688889 230.823111 773.688889 300.113778c0 69.267911-26.032356 132.255289-68.562489 180.406044 0 0.045511 0.022756 0.091022 0.022756 0.091022l-33.951289-28.626489c36.0448-40.368356 58.117689-93.479822 58.117689-151.893333C729.315556 242.8608 708.061867 190.773333 673.291378 150.7008zM767.135289 34.9888l31.652978-30.401422C881.004089 81.364622 932.977778 190.090667 932.977778 311.491556c0 111.638756-43.8272 212.809956-114.756267 288.130844-0.045511 0.182044-0.159289 0.318578-0.2048 0.477867l-33.837511-28.285156c64.762311-67.697778 104.766578-159.243378 104.766578-260.323556C888.945778 201.946311 841.750756 103.869867 767.135289 34.9888z"  horiz-adv-x="1024" />

    
    <glyph glyph-name="jinlingyingcaiwangtubiao22" unicode="&#59061;" d="M512.794 748.851c-254.080 0-460.774-206.694-460.774-460.774s206.694-460.774 460.774-460.774c254.106 0 460.826 206.694 460.826 460.774s-206.72 460.774-460.826 460.774zM682.112 446.874c25.395 0 45.952-20.582 45.952-45.952s-20.582-45.952-45.952-45.952c-25.395 0-45.952 20.582-45.952 45.952s20.557 45.952 45.952 45.952zM343.526 446.874c25.395 0 45.952-20.582 45.952-45.952s-20.582-45.952-45.952-45.952-45.952 20.582-45.952 45.952 20.557 45.952 45.952 45.952zM743.475 158.336c-34.79-97.024-127.437-162.202-230.528-162.202-103.526 0-196.275 65.536-230.835 163.098-3.533 10.010 1.69 20.966 11.699 24.525 10.010 3.533 20.966-1.69 24.525-11.699 29.107-82.253 107.341-137.523 194.637-137.523 86.938 0 165.043 54.963 194.381 136.755 3.584 10.010 14.566 15.181 24.55 11.597 9.958-3.584 15.155-14.566 11.571-24.55z"  horiz-adv-x="1024" />

    
    <glyph glyph-name="iconqita" unicode="&#59002;" d="M152.663982 300.883113m-87.020936 0a85.039 85.039 0 1 0 174.041872 0 85.039 85.039 0 1 0-174.041872 0ZM511.922229 300.883113m-87.020936 0a85.039 85.039 0 1 0 174.041872 0 85.039 85.039 0 1 0-174.041872 0ZM871.180476 300.883113m-87.020936 0a85.039 85.039 0 1 0 174.041872 0 85.039 85.039 0 1 0-174.041872 0Z"  horiz-adv-x="1024" />

    
    <glyph glyph-name="2xia" unicode="&#58891;" d="M475.7504 83.7824l-412.416 410.112 27.8016 27.648 384.6144-382.464 384.6144 382.464 27.8016-27.648L475.7504 83.7824z"  horiz-adv-x="1024" />

    
    <glyph glyph-name="duihao" unicode="&#58886;" d="M512 896C229.239467 896 0 666.760533 0 384s229.239467-512 512-512 512 229.239467 512 512S794.760533 896 512 896zM474.965333 110.933333C396.288 210.670933 303.7184 286.651733 238.933333 310.408533l152.746667 94.993067 74.0352-147.2512c0 0 120.354133 299.2128 310.101333 398.9504-4.608-71.236267-23.1424-132.949333 9.250133-208.964267C701.7472 429.124267 530.500267 215.415467 474.965333 110.933333z"  horiz-adv-x="1024" />

    
    <glyph glyph-name="weixin" unicode="&#59046;" d="M690.332672 384.065536c-12.587008 0-25.35936-12.722176-25.35936-25.356288 0-12.812288 12.772352-25.356288 25.35936-25.356288 19.262464 0 31.762432 12.544 31.762432 25.356288C722.095104 371.34336 709.595136 384.065536 690.332672 384.065536zM607.857664 504.712192c19.175424 0 31.762432 12.725248 31.762432 31.7184 0 19.08736-12.587008 31.675392-31.762432 31.675392-18.997248 0-38.037504-12.544-38.037504-31.675392C569.82016 517.43744 588.904448 504.712192 607.857664 504.712192zM975.842304 896l-716.8 0c-84.481024 0-153.6-69.118976-153.6-153.6l0-716.8c0-84.481024 69.118976-153.6 153.6-153.6l716.8 0c84.477952 0 153.6 69.118976 153.6 153.6L1129.442304 742.4C1129.442304 826.881024 1060.320256 896 975.842304 896zM512.745472 244.378624c-31.675392 0-57.121792 6.453248-88.840192 12.681216l-88.702976-44.443648 25.35936 76.297216c-63.527936 44.440576-101.518336 101.650432-101.518336 171.3152 0 120.737792 114.23744 215.755776 253.703168 215.755776 124.768256 0 234.034176-75.937792 255.987712-178.168832-8.153088 0.893952-16.262144 1.521664-24.506368 1.521664-120.465408 0-215.621632-89.959424-215.665664-200.794112 0-18.499584 2.909184-36.243456 7.837696-53.225472C528.605184 244.737024 520.717312 244.378624 512.745472 244.378624zM886.914048 155.450368l19.084288-63.434752-69.571584 38.168576c-25.35936-6.35904-50.849792-12.678144-76.11904-12.678144-120.687616 0-215.755776 82.387968-215.755776 184.08448 0 101.38112 95.025152 184.08448 215.755776 184.08448 114.015232 0 215.534592-82.656256 215.534592-184.08448C975.842304 244.378624 937.851904 193.712128 886.914048 155.450368zM829.886464 384.065536c-12.547072 0-25.222144-12.722176-25.222144-25.356288 0-12.812288 12.719104-25.356288 25.222144-25.356288 19.084288 0 31.762432 12.544 31.762432 25.356288C861.648896 371.34336 848.970752 384.065536 829.886464 384.065536zM430.314496 568.105984c-19.043328 0-38.218752-12.587008-38.218752-31.675392 0-18.994176 19.175424-31.7184 38.218752-31.7184 19.037184 0 31.675392 12.725248 31.675392 31.7184C461.988864 555.563008 449.35168 568.105984 430.314496 568.105984z"  horiz-adv-x="1229" />

    
    <glyph glyph-name="chenggong" unicode="&#58896;" d="M510.955204 833.77582M510.955204 833.77582c-246.974951 0-447.184809-200.213951-447.184809-447.183785 0-246.974951 200.209858-447.189925 447.184809-447.189925 246.973928 0 447.184809 200.214974 447.184809 447.189925C958.140013 633.565962 757.929132 833.77582 510.955204 833.77582zM452.991048 190.072219 258.95275 385.26583l35.294854 35.090193L452.991048 260.661927 744.035704 553.434947l35.294854-35.085076L452.991048 190.072219z"  horiz-adv-x="1024" />

    
    <glyph glyph-name="sousuo" unicode="&#58898;" d="M448.564225 92.889853c-193.9462 0-351.735923 158.605298-351.735923 353.553315S254.618025 799.997506 448.564225 799.997506s351.735923-158.605298 351.735923-353.553315S642.510426 92.889853 448.564225 92.889853zM448.564225 750.407064c-166.745698 0-302.400285-136.355551-302.400285-303.962873s135.653563-303.962873 302.400285-303.962873 302.400285 136.355551 302.400285 303.962873S615.310947 750.407064 448.564225 750.407064zM885.841384-31.997506 660.969846 189.41628 702.299137 230.301456 927.170674 8.88767Z"  horiz-adv-x="1024" />

    
    <glyph glyph-name="duihao1" unicode="&#58974;" d="M443.062931-123.648902C296.951179 61.534727 125.052111 202.615906 4.733814 246.721427l283.578614 176.413895L425.781336 149.744745c0 0 223.484957 555.553958 575.931055 740.734518-8.511861-132.180462-42.946115-246.823502 17.150612-388.033617C864.238366 467.236749 546.227546 70.304462 443.062931-123.648902L443.062931-123.648902 443.062931-123.648902z"  horiz-adv-x="1024" />

    
    <glyph glyph-name="location" unicode="&#58910;" d="M511.998 832.486c-200.688 0-363.371-150.581-363.371-336.355 0-280.296 302.807-560.618 363.371-560.618 60.567 0 363.373 280.322 363.373 560.618 0 185.774-162.684 336.355-363.373 336.355zM511.998 294.304c-100.343 0-181.697 80.316-181.697 179.394s81.354 179.394 181.697 179.394c100.345 0 181.674-80.316 181.674-179.394s-81.329-179.394-181.674-179.394z"  horiz-adv-x="1024" />

    
    <glyph glyph-name="iconset0209" unicode="&#58988;" d="M874.666667 426.666667l-85.333333 0 0-85.333333 85.333333 0L874.666667 426.666667zM618.666667 277.333333l-85.333333 0 0-85.333333 85.333333 0L618.666667 277.333333zM618.666667 128l-85.333333 0 0-85.333333 85.333333 0L618.666667 128zM746.666667 277.333333l-85.333333 0 0-85.333333 85.333333 0L746.666667 277.333333zM618.666667 426.666667l-85.333333 0 0-85.333333 85.333333 0L618.666667 426.666667zM874.666667 277.333333l-85.333333 0 0-85.333333 85.333333 0L874.666667 277.333333zM746.666667 426.666667l-85.333333 0 0-85.333333 85.333333 0L746.666667 426.666667zM490.666667 426.666667l-85.333333 0 0-85.333333 85.333333 0L490.666667 426.666667zM234.666667 277.333333 149.333333 277.333333l0-85.333333 85.333333 0L234.666667 277.333333zM362.666667 128l-85.333333 0 0-85.333333 85.333333 0L362.666667 128zM234.666667 426.666667 149.333333 426.666667l0-85.333333 85.333333 0L234.666667 426.666667zM234.666667 128 149.333333 128l0-85.333333 85.333333 0L234.666667 128zM490.666667 277.333333l-85.333333 0 0-85.333333 85.333333 0L490.666667 277.333333zM896 768l-85.333333 0L810.666667 832c0 12.8-8.533333 21.333333-21.333333 21.333333s-21.333333-8.533333-21.333333-21.333333l0-64L256 768 256 832c0 12.8-8.533333 21.333333-21.333333 21.333333s-21.333333-8.533333-21.333333-21.333333l0-64L128 768c-46.933333 0-85.333333-38.4-85.333333-85.333333l0-128 0-42.666667 0-512c0-46.933333 38.4-85.333333 85.333333-85.333333l768 0c46.933333 0 85.333333 38.4 85.333333 85.333333L981.333333 512l0 42.666667 0 128C981.333333 729.6 942.933333 768 896 768zM938.666667 0c0-23.466667-19.2-42.666667-42.666667-42.666667L128-42.666667c-23.466667 0-42.666667 19.2-42.666667 42.666667L85.333333 512l853.333333 0L938.666667 0zM938.666667 554.666667 85.333333 554.666667l0 128c0 23.466667 19.2 42.666667 42.666667 42.666667l85.333333 0 0-64c0-12.8 8.533333-21.333333 21.333333-21.333333s21.333333 8.533333 21.333333 21.333333L256 725.333333l512 0 0-64c0-12.8 8.533333-21.333333 21.333333-21.333333s21.333333 8.533333 21.333333 21.333333L810.666667 725.333333l85.333333 0c23.466667 0 42.666667-19.2 42.666667-42.666667L938.666667 554.666667zM362.666667 277.333333l-85.333333 0 0-85.333333 85.333333 0L362.666667 277.333333zM490.666667 128l-85.333333 0 0-85.333333 85.333333 0L490.666667 128zM362.666667 426.666667l-85.333333 0 0-85.333333 85.333333 0L362.666667 426.666667z"  horiz-adv-x="1024" />

    
    <glyph glyph-name="shizhong" unicode="&#59215;" d="M511.913993 832.010751c-247.012263 0-447.924744-200.912481-447.924744-447.924744s200.912481-447.924744 447.924744-447.924744 447.924744 200.912481 447.924744 447.924744S758.926256 832.010751 511.913993 832.010751zM511.913993 0.322526c-211.577356 0-383.763481 172.186125-383.763481 383.763481 0 211.577356 172.014111 383.763481 383.763481 383.763481s383.763481-172.014111 383.763481-383.763481S723.491349 0.322526 511.913993 0.322526zM672.05913 384.086007l-159.973123 0L512.086007 607.876365c0 17.717453-14.277171 32.166639-31.994625 32.166639-17.717453 0-31.994625-14.449185-31.994625-32.166639l0-255.956996c0-17.717453 14.277171-31.994625 31.994625-31.994625l191.967747 0c17.717453 0 32.166639 14.277171 32.166639 31.994625C704.053754 369.808836 689.604569 384.086007 672.05913 384.086007z"  horiz-adv-x="1024" />

    
    <glyph glyph-name="nanxingmale154" unicode="&#59111;" d="M806.44096 717.07648 649.0112 717.07648c-15.37024 0-27.83232-12.46208-27.83232-27.83232s12.46208-27.83232 27.83232-27.83232l73.07264 0-175.616-175.616c-35.60448 21.79072-77.42464 34.37568-122.13248 34.37568-129.37216 0-234.61888-105.24672-234.61888-234.61888 0-129.37216 105.24672-234.61888 234.61888-234.61888 129.37216 0 234.61888 105.24672 234.61888 234.61888 0 55.95136-19.712 107.35616-52.51072 147.72224l172.16512 172.16512 0-83.29216c0-15.37024 12.46208-27.83232 27.83232-27.83232s27.83232 12.46208 27.83232 27.83232L834.27328 689.24416C834.27328 704.6144 821.8112 717.07648 806.44096 717.07648zM424.33536 130.4576c-85.51424 0-155.09504 69.57056-155.09504 155.09504 0 85.51424 69.57056 155.0848 155.09504 155.0848 85.51424 0 155.0848-69.57056 155.0848-155.0848C579.42016 200.02816 509.8496 130.4576 424.33536 130.4576z"  horiz-adv-x="1024" />

    
    <glyph glyph-name="bianji" unicode="&#58892;" d="M786.715759 490.986663c-14.355963 0-24.957415-11.660574-24.957415-26.028816l0-26.042119 0-234.370889 0-58.018392c0-34.232662-26.463722-63.34163-60.633962-63.34163L236.738819 83.184817c-34.168194 0-73.916477 29.108968-73.916477 63.34163L162.822342 612.502227c0 34.262338 39.748283 70.791299 73.916477 70.791299l31.877011 0 155.703201 0 77.865415 0c14.353916 0 25.957185 10.621918 25.957185 25.00551 0 14.383592-11.603269 25.00551-25.957185 25.00551l-77.865415 0L268.61583 733.304548l-31.877011 0c-68.26271 0-123.82926-52.268434-123.82926-120.801297l0-465.97578c0-68.517513 55.565527-113.349581 123.82926-113.349581l464.384539 0c68.288293 0 110.546745 44.832068 110.546745 113.349581l0 58.018392L811.670104 438.915727l0 26.042119C811.671127 479.326089 801.069675 490.986663 786.715759 490.986663zM889.023866 773.396661l-38.019918 38.141692c-28.92682 29.034267-79.763648 29.034267-108.693538 0l-71.845305-84.610026L287.60123 359.724107l0-8.960069-0.292666-1.539053-48.15679-163.557076 35.361369-31.620162 154.48649 54.575989 1.948375-0.417509 7.581676 0 366.123608 384.043746 84.370573 69.02712C918.975015 691.327504 918.975015 743.325785 889.023866 773.396661zM307.169915 221.591073l22.49227 71.765487 44.941562-45.078685L307.169915 221.591073zM420.300508 275.116127l-66.142419 66.341964 342.286714 341.15289 64.021106-64.233953L420.300508 275.116127zM852.808036 700.717362l-51.006697-51.131541-74.258261 74.497715 50.984185 51.121308c4.823865 4.823865 11.233855 7.471159 18.130939 7.471159 6.871501 0 13.307074-2.648316 18.108426-7.471159l37.994336-38.129412C862.777085 727.038844 862.777085 710.729389 852.808036 700.717362z"  horiz-adv-x="1024" />

    
    <glyph glyph-name="daohang" unicode="&#58961;" d="M605.848435-62.708971c-0.36225 0-0.724501 0.008186-1.088798 0.026606-9.098215 0.468674-16.872273 6.712889-19.288299 15.495926L476.898551 347.541647 80.07064 458.16514c-8.760524 2.442632-14.976086 10.218736-15.427364 19.304671-0.451278 9.083889 4.965082 17.437138 13.44215 20.73423L929.251056 829.271226c7.80885 3.038196 16.669658 1.174756 22.597671-4.750187 5.922896-5.92392 7.788383-14.789844 4.751211-22.597671L625.531729-49.241238C622.361527-57.390849 614.518908-62.708971 605.848435-62.708971zM152.537092 481.827049l347.232352-96.79658c7.148817-1.9934 12.726859-7.591909 14.696724-14.746866l94.821599-344.730369 290.525839 746.93166L152.537092 481.827049z"  horiz-adv-x="1024" />

    
    <glyph glyph-name="haoping" unicode="&#58899;" d="M983.74656 583.304192c-25.781248 60.971008-62.698496 115.721216-109.710336 162.733056-47.012864 47.013888-101.77024 83.929088-162.740224 109.717504C648.157184 882.459648 581.106688 896 511.991808 896 442.89024 896 375.832576 882.459648 312.69376 855.754752c-60.971008-25.788416-115.721216-62.703616-162.73408-109.717504-47.012864-47.012864-83.928064-101.763072-109.715456-162.733056C13.538304 520.160256-0.002048 453.107712-0.002048 384s13.540352-136.159232 40.246272-199.298048c25.787392-60.976128 62.702592-115.72736 109.715456-162.740224 47.012864-47.01184 101.763072-83.922944 162.73408-109.710336C375.83872-114.453504 442.89024-128 511.991808-128c69.113856 0 136.165376 13.546496 199.304192 40.252416 60.969984 25.781248 115.72736 62.698496 162.740224 109.710336 47.01184 47.012864 83.922944 101.764096 109.710336 162.740224 26.70592 63.138816 40.252416 130.190336 40.252416 199.298048S1010.45248 520.165376 983.74656 583.304192L983.74656 583.304192 983.74656 583.304192zM306.439168 573.678592c37.582848 0 68.052992-30.465024 68.052992-68.052992 0-37.583872-30.470144-68.047872-68.052992-68.047872-37.582848 0-68.046848 30.464-68.046848 68.047872C238.39232 543.213568 268.85632 573.678592 306.439168 573.678592L306.439168 573.678592 306.439168 573.678592zM778.348544 219.145216c-29.714432-39.964672-69.2736-73.145344-114.404352-95.942656-46.52544-23.499776-99.065856-35.92704-151.952384-35.92704-52.875264 0-105.416704 12.42112-151.945216 35.92704-45.124608 22.798336-84.686848 55.97184-114.399232 95.936512-9.109504 12.254208-6.55872 29.564928 5.68832 38.674432 12.255232 9.102336 29.565952 6.557696 38.668288-5.695488 51.01056-68.608 133.997568-109.568 221.988864-109.568 87.99744 0 170.990592 40.96 221.993984 109.574144 9.10848 12.253184 26.420224 14.7968 38.668288 5.689344C784.907264 248.710144 787.45088 231.399424 778.348544 219.145216L778.348544 219.145216 778.348544 219.145216zM717.551616 437.577728c-37.582848 0-68.047872 30.464-68.047872 68.047872 0 37.582848 30.465024 68.052992 68.047872 68.052992s68.052992-30.470144 68.052992-68.052992C785.604608 468.041728 755.134464 437.577728 717.551616 437.577728L717.551616 437.577728 717.551616 437.577728zM717.551616 437.577728"  horiz-adv-x="1025" />

    
    <glyph glyph-name="volume1-copy" unicode="&#59231;" d="M358.464 469.312v-170.592h139.904l116-116v402.592l-116-116h-139.904zM522.496 445.184l57.76 57.76v-237.856l-67.744 67.744h-119.904v102.368h119.904l9.984 9.984zM854.112 638.72l-27.52-20.48c48.832-65.408 77.792-146.496 77.792-234.24s-28.96-168.832-77.792-234.24l27.52-20.48c53.024 71.072 84.384 159.232 84.384 254.688s-31.392 183.648-84.384 254.72zM771.584 190.72c40.32 54.048 64.544 120.8 64.544 193.28s-24.192 139.232-64.544 193.28l-27.328-20.352c36.096-48.352 57.728-108.096 57.728-172.928s-21.632-124.576-57.728-172.928l27.328-20.352zM689.6 251.744c27.616 36.992 44.16 82.656 44.16 132.256s-16.544 95.264-44.16 132.256l-27.328-20.352c23.36-31.296 37.376-69.952 37.376-111.904s-14.016-80.608-37.376-111.904l27.328-20.352zM511.968-8.384c-216.352 0-392.352 176-392.352 392.384s176 392.384 392.352 392.384c107.84 0 205.504-43.84 276.512-114.464l24.256 24.256c-77.12 76.768-183.328 124.32-300.736 124.32-235.52 0-426.496-190.944-426.496-426.496s190.976-426.496 426.496-426.496c117.408 0 223.616 47.552 300.736 124.32l-24.256 24.256c-71.008-70.624-168.672-114.464-276.512-114.464z"  horiz-adv-x="1024" />

    
    <glyph glyph-name="qian" unicode="&#58929;" d="M694.26516 609.01173 512 426.745547 329.732793 609.01173c-8.287757 8.287757-21.724791 8.286734-30.012547-0.001023-8.286734-8.286734-8.286734-21.723767 0-30.011524l161.04486-161.043836-108.634186 0c-11.720949 0-21.221324-9.502421-21.221324-21.221324s9.501398-21.221324 21.221324-21.221324l139.000797 0 0-89.12997L363.803773 286.382729c-11.720949 0-21.221324-9.502421-21.221324-21.221324s9.501398-21.221324 21.221324-21.221324l127.328967 0 0-131.572618c0-11.718903 9.502421-21.221324 21.221324-21.221324s21.221324 9.502421 21.221324 21.221324L533.575388 243.940081l127.327944 0c11.719926 0 21.221324 9.502421 21.221324 21.221324S672.623257 286.382729 660.903332 286.382729L533.575388 286.382729l0 89.12997 138.999774 0c11.719926 0 21.221324 9.502421 21.221324 21.221324s-9.502421 21.221324-21.221324 21.221324L563.233871 417.955346l161.043836 161.043836c8.287757 8.287757 8.287757 21.724791 0 30.012547C715.987904 617.299487 702.554964 617.299487 694.26516 609.01173zM512 830.709995c-246.316965 0-446.709995-200.39303-446.709995-446.708971 0-246.316965 200.39303-446.709995 446.709995-446.709995s446.709995 200.39303 446.709995 446.709995C958.709995 630.316965 758.316965 830.709995 512 830.709995zM512-20.266323c-222.913952 0-404.267347 181.353394-404.267347 404.267347S289.086048 788.266323 512 788.266323s404.267347-181.352371 404.267347-404.266323S734.912929-20.266323 512-20.266323z"  horiz-adv-x="1024" />

    
    <glyph glyph-name="guan" unicode="&#58882;" d="M1344.238 36.387h-678.214c-191.842 0-347.364 155.639-347.364 347.617 0 191.982 155.52 347.608 347.363 347.608h678.214c191.842 0 347.364-155.626 347.363-347.608 0-191.977-155.525-347.617-347.364-347.617v0zM666.024 701.587c-174.992 0-317.352-142.471-317.352-317.583 0-175.121 142.361-317.584 317.352-317.583 174.992 0 317.35 142.462 317.35 317.583 0 175.112-142.359 317.583-317.35 317.583v0z"  horiz-adv-x="2023" />

    
    <glyph glyph-name="pengyouquan" unicode="&#58912;" d="M512 896C229.2736 896 0 666.8288 0 384c0-282.7264 229.2736-512 512-512 282.8288 0 512 229.1712 512 512C1024 666.8288 794.8288 896 512 896zM714.752 586.752c28.672-28.672 49.8688-61.8496 63.7952-97.3824l-158.5152-151.552 30.4128 297.1648C673.4848 622.3872 695.1936 606.3104 714.752 586.752zM512 670.72c40.5504 0 79.0528-8.4992 113.9712-23.6544l-4.9152-219.2384L432.4352 659.456C457.6256 666.7264 484.352 670.72 512 670.72zM309.248 586.752c28.672 28.672 61.8496 49.8688 97.28 63.7952l151.552-158.5152-297.1648 30.4128C273.7152 545.4848 289.6896 567.1936 309.248 586.752zM225.28 384c0 40.5504 8.4992 79.0528 23.6544 113.9712l219.2384-4.9152L236.544 304.4352C229.2736 329.728 225.28 356.352 225.28 384zM309.248 181.248c-28.672 28.672-49.8688 61.8496-63.7952 97.28l158.5152 151.552-30.4128-297.1648C350.5152 145.7152 328.8064 161.6896 309.248 181.248zM512 97.28c-40.5504 0-79.0528 8.4992-113.9712 23.6544l4.9152 219.2384 188.6208-231.6288C566.3744 101.2736 539.648 97.28 512 97.28zM714.752 181.248c-28.672-28.672-61.8496-49.8688-97.28-63.8976l-151.552 158.5152 297.1648-30.3104C750.2848 222.5152 734.3104 200.8064 714.752 181.248zM775.0656 270.0288l-219.2384 4.9152 231.6288 188.6208C794.7264 438.3744 798.72 411.648 798.72 384 798.72 343.4496 790.2208 304.9472 775.0656 270.0288z"  horiz-adv-x="1024" />

    
    <glyph glyph-name="dingwei002" unicode="&#58914;" d="M896.921983-51.108852 127.937754-51.108852c-17.78694 0-32.614288 7.692984-40.686415 21.111087-8.065332 13.418302-7.912236 30.120378 0.425711 45.833125l111.266761 209.575308c7.054817 13.278397 23.551632 18.331371 36.830029 11.28375 13.285393-7.054817 18.338566-23.544637 11.28375-36.830029l-104.318672-196.477188 736.230036-0.026182-183.330702 301.679461-134.679487-221.663112c-9.156192-15.07378-23.378549-23.797265-39.010951-23.92398-15.75212-0.757886-30.001659 8.344942-39.409281 23.265826-8.431683 13.364939-206.264353 328.947773-200.532839 479.990167 6.144034 161.807894 121.333736 251.365774 231.943542 256.205493 105.196277 4.474366 220.88524-69.291221 243.007841-244.716682 1.881924-14.920884-8.690108-28.545246-23.617987-30.426371-14.841338-1.874929-28.545446 8.690108-30.426371 23.617987-18.99672 150.677241-112.27128 200.379942-186.582297 197.101165-85.688303-3.743862-174.99975-74.969171-179.893832-203.843994-4.05585-106.938296 125.92902-341.53464 185.00017-437.369464l135.071022 222.302279c9.209556 15.153326 23.465091 23.850429 39.117478 23.850429 15.645392 0 29.907922-8.690108 39.110483-23.843434l200.119319-329.253566c9.408821-15.4865 10.392954-32.215758 2.693174-45.905676C929.848059-43.255777 915.040898-51.108852 896.921983-51.108852zM522.872588 432.532639c-54.377532 0-98.620535 44.237007-98.620535 98.61354s44.244003 98.620535 98.620535 98.620535 98.61354-44.244003 98.61354-98.620535S577.249121 432.532639 522.872588 432.532639zM522.872588 575.296645c-24.342696 0-44.150466-19.80777-44.150466-44.150466s19.80777-44.143471 44.150466-44.143471 44.143471 19.800775 44.143471 44.143471C567.016259 555.488875 547.215284 575.296645 522.872588 575.296645z"  horiz-adv-x="1024" />

    
    <glyph glyph-name="bbgbianji" unicode="&#58894;" d="M926.737 628.528l-89.126-90.239c-0.329-0.371-0.173-0.939-0.532-1.293-0.347-0.347-0.892-0.191-1.251-0.521l-332.535-336.702c-1.287-2.233-0.953-4.997-2.86-6.907-1.85-1.85-4.549-1.508-6.703-2.777l-14.967-15.154-239.627-61.003 62.865 235.886 455.463 447.983c46.748 46.748 122.534 46.748 169.275 0 46.748-46.741 46.748-122.533 0-169.275zM298.257 171.196l133.815 47.706-84.243 84.249-49.572-131.954zM438.308 394.012c-1.532-1.532-2.119-3.543-3.447-5.195l-43.414-44.653 83.573-83.567 62.524 63.373 235.12 235.12-84.637 84.638-249.718-249.716zM884.418 755.484c-23.371 23.371-61.261 23.371-84.637 0l-69.436-69.436 84.637-84.637 69.436 69.436c23.377 23.371 23.377 61.267 0 84.637zM451.217 713.166l-269.318 0c-33.054 0-59.849-26.794-59.849-59.849l0-598.484c0-33.054 26.794-59.849 59.849-59.849l598.484 0c33.054 0 59.849 26.794 59.849 59.849l0 329.167c0 16.524 13.399 29.924 29.924 29.924s29.924-13.401 29.924-29.924l0-329.168c0-66.109-53.588-119.697-119.697-119.697l-598.483 0c-66.109 0-119.697 53.588-119.697 119.697l0 598.485c0 66.109 53.588 119.697 119.697 119.697l269.318 0c16.524 0 29.924-13.399 29.924-29.924s-13.399-29.925-29.924-29.925z"  horiz-adv-x="1024" />

    
    <glyph glyph-name="zhifubao" unicode="&#58981;" d="M230.404452 319.463513C218.3168 309.735513 205.360974 295.533078 201.598887 277.479513 196.478887 252.81447 200.530365 221.938643 224.327235 197.718817 253.155061 168.35673 296.964452 160.320557 315.886191 158.940383 367.286539 155.222817 422.070539 180.711513 463.364452 209.784209 479.548104 221.204035 507.262887 244.13273 533.753322 279.505252 474.383583 310.15847 400.277148 344.061774 321.050713 340.744904 280.580452 339.053078 251.5968 330.66073 230.404452 319.463513ZM983.262609 183.919304C1009.463652 245.426087 1024 313.032348 1024 384 1024 666.312348 794.334609 896 512 896 229.665391 896 0 666.312348 0 384 0 101.665391 229.665391-128 512-128 682.384696-128 833.491478-44.27687 926.630957 84.123826 838.633739 127.866435 693.604174 199.858087 604.271304 243.422609 561.641739 194.82713 498.621217 146.120348 427.430957 124.928 382.70887 111.638261 342.394435 106.562783 300.232348 115.177739 258.493217 123.725913 227.750957 143.270957 209.830957 162.860522 200.704 172.855652 190.21913 185.566609 182.628174 200.681739 183.340522 198.767304 183.830261 197.632 183.830261 197.632 183.830261 197.632 179.46713 205.156174 176.128 217.132522 174.413913 222.920348 173.256348 228.953043 172.78887 235.27513 172.432696 239.415652 172.343652 243.778783 172.588522 248.32 172.210087 256.022261 172.521739 264.102957 174.258087 272.384 178.44313 292.61913 187.080348 316.193391 209.430261 338.075826 258.493217 386.114783 324.207304 388.697043 358.244174 388.496696 408.665043 388.207304 496.283826 366.146783 570.056348 340.057043 590.491826 383.577043 603.603478 430.124522 612.062609 461.156174L305.307826 461.156174 305.307826 494.32487 462.825739 494.32487 462.825739 560.662261 272.13913 560.662261 272.13913 593.830957 462.825739 593.830957 462.825739 660.146087C462.825739 669.250783 464.62887 676.730435 479.410087 676.730435L554.028522 676.730435 554.028522 593.830957 761.321739 593.830957 761.321739 560.662261 554.028522 560.662261 554.028522 494.32487 719.849739 494.32487C719.849739 494.32487 703.198609 401.497043 651.130435 310.00487 766.686609 268.733217 929.257739 205.156174 983.262609 183.919304Z"  horiz-adv-x="1024" />

    
    <glyph glyph-name="umidd17" unicode="&#58906;" d="M938.7008 226.474667 938.7008 646.587733c0 90.555733-73.5232 164.078933-164.1472 164.078933L249.378133 810.666667c-90.555733 0-164.078933-73.489067-164.078933-164.078933l0-525.2096c0-90.555733 73.454933-164.078933 164.078933-164.078933l525.2096 0c80.725333 0 147.8656 58.368 161.553067 135.099733-43.52 18.8416-232.106667 100.283733-330.376533 147.182933-74.786133-90.589867-153.088-144.930133-271.121067-144.930133s-196.8128 72.704-187.357867 161.655467c6.2464 58.402133 46.2848 153.9072 220.296533 137.5232 91.682133-8.6016 133.666133-25.736533 208.418133-50.414933 19.3536 35.4304 35.4304 74.513067 47.616 116.0192L292.0448 459.434667l0 32.8704 164.0448 0 0 58.9824L256 551.287467l0 36.181333 200.123733 0L456.123733 672.6656c0 0 1.809067 13.312 16.520533 13.312l82.056533 0 0-98.474667 213.333333 0 0-36.181333-213.333333 0 0-58.9824 174.045867 0c-16.008533-65.1264-40.277333-124.962133-70.690133-177.220267C708.608 296.823467 938.7008 226.474667 938.7008 226.474667L938.7008 226.474667 938.7008 226.474667 938.7008 226.474667zM321.570133 151.005867c-124.7232 0-144.452267 78.7456-137.8304 111.650133 6.5536 32.733867 42.666667 75.502933 112.0256 75.502933 79.6672 0 151.04-20.445867 236.714667-62.088533C472.302933 197.666133 398.370133 151.005867 321.570133 151.005867L321.570133 151.005867 321.570133 151.005867zM321.570133 151.005867"  horiz-adv-x="1024" />

    
    <glyph glyph-name="tixian" unicode="&#59004;" d="M922.122705 548.948773c0 19.764136-16.021905 35.785018-35.785018 35.785018L99.064226 584.73379c-19.764136 0-35.785018-16.020882-35.785018-35.785018l0-533.198811c0-19.763113 16.020882-35.785018 35.785018-35.785018l787.273461 0c19.763113 0 35.785018 16.021905 35.785018 35.785018L922.122705 151.733029 696.67607 151.733029l0 0.022513c-0.596588-0.008186-1.191128-0.022513-1.788739-0.022513-72.136947 0-130.615826 58.478879-130.615826 130.615826s58.478879 130.615826 130.615826 130.615826c0.598634 0 1.193175-0.014326 1.788739-0.022513l0 0.022513 225.446635 0L922.122705 548.948773zM617.949031 282.348855c0-42.491767 34.446533-76.9383 76.9383-76.9383s76.9383 34.446533 76.9383 76.9383-34.446533 76.9383-76.9383 76.9383S617.949031 324.840622 617.949031 282.348855zM836.231499 618.031151l-44.421722 155.503657c-4.469801 15.647375-20.828374 24.724101-36.537148 20.273742L134.930085 618.031151 836.231499 618.031151z"  horiz-adv-x="1024" />

    
    <glyph glyph-name="yanjing" unicode="&#58921;" d="M511.948323 647.192308c-293.14141 0-448.565249-277.992385-448.565249-277.992385s167.818123-247.090585 448.565249-247.090585c280.767592 0 448.604134 247.090585 448.604134 247.090585S822.670134 647.192308 511.948323 647.192308zM512.223592 226.479407c-89.384773 0-161.849178 70.711482-161.849178 157.924799 0 87.212294 72.464405 157.924799 161.849178 157.924799 89.384773 0 161.849178-70.712505 161.849178-157.924799C674.072771 297.190889 601.607342 226.479407 512.223592 226.479407zM511.967766 448.800865c-39.134299 0-70.857814-31.467689-70.857814-70.273507 0-38.805818 31.723515-70.273507 70.857814-70.273507s70.857814 31.467689 70.857814 70.273507C582.82558 417.333176 551.102065 448.800865 511.967766 448.800865z"  horiz-adv-x="1024" />

    
    <glyph glyph-name="dingwei" unicode="&#58911;" d="M512-63.469288c-10.69969 0-16.60519 1.283226-20.36584 5.689582-2.261507 2.64934-229.644237 272.535093-290.237267 403.232784-21.890566 46.818305-33.44267 97.655134-33.44267 147.265018 0 187.090049 154.331971 339.226005 344.045777 339.226005s344.045777-153.187915 344.045777-341.429183c0-56.871265-10.660804-99.841939-36.789904-148.300604C747.006362 208.324932 534.795169-54.618713 532.675902-57.24247c-2.532683-3.166109-7.055696-6.227842-20.145829-6.227842L512-63.470311zM512 623.596913c-72.959685 0-132.325771-59.365062-132.325771-132.325771S439.040315 358.945371 512 358.945371s132.325771 59.365062 132.325771 132.325771S584.959685 623.596913 512 623.596913z"  horiz-adv-x="1024" />

    
    <glyph glyph-name="dingwei003" unicode="&#58903;" d="M512.002047-51.106726c-219.270982 0-341.649194 48.301076-341.649194 129.346927 0 46.699602 70.920236 87.605244 169.088046 110.351294l23.205515-40.547485c-83.645049-14.536065-137.545656-40.329521-137.545656-69.793576 0-45.472658 138.379651-74.709539 286.900266-74.709539 148.526755 0 286.906405 29.236881 286.906405 74.709539 0 29.465079-53.899584 55.257511-137.546679 69.793576l23.206538 40.547485c98.16781-22.74605 169.077813-63.651692 169.077813-110.351294C853.647147-0.89923 724.31557-51.106726 512.002047-51.106726L512.002047-51.106726zM739.214908 344.291626c-7.971555-8.656147-196.655915-228.198306-196.655915-228.198306-7.90811-9.616008-16.569374-16.311501-25.942859-16.311501-9.377578 0-16.447601 7.495718-23.633257 16.311501 0 0-212.783221 232.599546-216.389352 237.645468-3.609201 5.050016-8.53949 11.474332-12.497639 18.102287-28.030403 44.956911-46.617737 96.411817-46.617737 153.264663 0 162.378228 131.860167 293.999964 294.522873 293.999964 162.659637 0 294.529013-131.621736 294.529013-293.999964 0-58.634422-17.423835-113.100918-47.117111-158.922523C751.272525 355.485573 743.562936 348.619188 739.214908 344.291626L739.214908 344.291626zM512.002047 764.536876c-133.275399 0-241.317091-107.847264-241.317091-240.886279 0-43.914162 14.406105-83.290985 36.419468-115.342981 7.257288-11.489682 29.978778-38.296211 29.978778-38.296211l181.620477-201.983247 165.487032 196.383716c0 0 8.728802 10.343579 19.165502 25.444509 26.66122 38.547944 49.959855 80.743976 49.959855 133.794216C753.315044 656.689612 645.282562 764.536876 512.002047 764.536876L512.002047 764.536876zM512.002047 411.65485c-62.776765 0-113.663736 50.79999-113.663736 113.451912 0 62.666248 50.886971 113.466238 113.663736 113.466238 62.778812 0 113.659643-50.79999 113.659643-113.466238C625.661689 462.45484 574.776765 411.65485 512.002047 411.65485L512.002047 411.65485zM512.002047 583.916169c-32.530904 0-58.905598-26.335808-58.905598-58.809407 0-32.459273 26.37981-58.795081 58.905598-58.795081 32.532951 0 58.906621 26.335808 58.906621 58.795081C570.908668 557.585477 544.533974 583.916169 512.002047 583.916169L512.002047 583.916169zM512.002047 583.916169"  horiz-adv-x="1024" />

    
    <glyph glyph-name="yuyin" unicode="&#58924;" d="M519.659-103.452c-266.094 0-481.806 215.714-481.806 481.804 0 266.094 215.712 481.806 481.806 481.806 266.089 0 481.804-215.712 481.804-481.806C1001.462 112.262 785.748-103.452 519.659-103.452zM519.659 801.913c-233.929 0-423.561-189.632-423.561-423.561s189.632-423.559 423.561-423.559 423.559 189.63 423.559 423.559S753.588 801.913 519.659 801.913zM549.649 659.768l-2.23-2.752c-11.7-13.76-10.67-34.057 1.89-46.787 60.89-61.237 98.56-145.867 98.56-239.267 0-92.03-36.635-175.285-95.98-236.519-12.385-12.73-13.245-32.86-1.89-46.45 13.07-15.65 36.81-16.51 50.915-2.06 72.76 73.965 117.485 175.455 117.485 287.434 0 112.325-45.07 213.984-118.175 288.122C586.288 676.11 562.729 675.078 549.649 659.768zM488.419 539.876c-12.045 16.34-35.78 18.233-50.23 4.128l-0.69-0.688c-12.04-11.698-13.59-30.447-3.785-44.035 26.835-36.64 42.835-81.707 42.835-130.56 0-45.24-13.59-87.38-36.985-122.3-9.29-14.11-6.71-33.03 6.195-44.04 15.135-12.9 38.36-9.8 49.54 6.71 30.79 45.93 48.85 101.145 48.85 160.49C544.149 433.399 523.509 492.228 488.419 539.876zM383.829 414.306c-9.115 12.212-24.25 19.78-39.39 19.78-15.138 0-30.272-7.568-39.39-19.78-9.117-12.215-12.042-28.9-7.74-43.345-4.302-14.625-1.378-31.14 7.74-43.35 9.117-12.215 24.252-19.78 39.39-19.78 15.14 0 30.275 7.565 39.39 19.78 9.12 12.21 12.04 28.9 7.74 43.35C395.869 385.406 392.949 402.091 383.829 414.306z"  horiz-adv-x="1024" />

    
    <glyph glyph-name="duoxuan" unicode="&#59385;" d="M826.442552 636.246001l-15.518438 37.422308c-184.594205-118.078279-318.340325-266.601964-378.600781-341.447603L285.270139 452.695568l-65.22656-54.614875 254.308987-270.169209C518.392594 244.878452 657.011698 473.647763 826.442552 636.246001zM898.217249 828.63473 125.781728 828.63473c-35.549657 0-64.370053-28.819372-64.370053-64.370053l0-760.527306c0-35.549657 28.819372-64.3721 64.370053-64.3721l772.435521 0c35.551704 0 64.370053 28.821419 64.370053 64.3721L962.587302 764.264677C962.587302 799.814334 933.769976 828.63473 898.217249 828.63473zM898.217249 2.889049 125.781728 2.889049 125.781728 765.117091l772.435521 0L898.217249 2.889049z"  horiz-adv-x="1024" />

    
    <glyph glyph-name="comment" unicode="&#58901;" d="M320.129 470.285c-26.49 0-47.967-22.273-47.967-49.758 0-27.486 21.477-49.759 47.967-49.759s47.967 22.273 47.967 49.759c0 27.484-21.477 49.758-47.967 49.758zM512 470.285c-26.49 0-47.967-22.273-47.967-49.758 0-27.486 21.478-49.759 47.967-49.759 26.489 0 47.967 22.273 47.967 49.759-0.001 27.484-21.478 49.758-47.967 49.758zM703.87 470.285c-26.49 0-47.967-22.273-47.967-49.758 0-27.486 21.478-49.759 47.967-49.759 26.49 0 47.967 22.273 47.967 49.759 0 27.484-21.478 49.758-47.967 49.758zM799.804 719.069h-575.61c-52.98 0-95.934-44.56-95.934-99.519v-373.176c0-54.96 43.915-105.62 98.113-105.62h146.198c25.482-27.146 130.951-136.338 130.951-136.338 4.684-4.871 12.273-4.871 16.956 0 0 0 77.221 87.551 127.532 136.338h149.617c54.198 0 98.114 50.661 98.114 105.62l-0 373.176c0 54.959-42.955 99.519-95.936 99.519zM847.772 246.375c0-27.475-23.048-56.306-50.147-56.306l-147.134 0c-17.823 0-33.844-18.327-33.844-18.327l-103.313-107.153-103.289 107.153c0 0-19.675 18.327-36.538 18.327h-147.134c-27.099 0-50.146 28.832-50.146 56.306l-0 373.176c0 27.485 21.477 49.76 47.967 49.76h575.61c26.49 0 47.969-22.275 47.969-49.76v-373.176z"  horiz-adv-x="1024" />

    
    <glyph glyph-name="wode" unicode="&#58884;" d="M582.395 379.901h-169.13c-144.738 0-262.159-120.345-262.159-268.7v-17.313c0-60.634 117.344-60.711 262.159-60.711h169.13c144.738 0 262.159 2.231 262.159 60.711v17.313c-0 148.354-117.421 268.7-262.159 268.7zM292.997 616.283c0-113.126 91.707-204.833 204.833-204.833s204.833 91.707 204.833 204.833-91.707 204.833-204.833 204.833-204.833-91.707-204.833-204.833z"  horiz-adv-x="1024" />

    
    <glyph glyph-name="wx-pay" unicode="&#58880;" d="M883.961 804.187h-730.726c-32.041 0-58.013-25.974-58.013-58.014v-730.726c0-32.041 25.974-58.014 58.013-58.014h730.726c32.042 0 58.014 25.975 58.014 58.014l0 730.726c0.001 32.040-25.973 58.014-58.014 58.014zM518.601 110.498c-42.528 0-83.13 7.248-120.392 20.287-23.7-15.756-63.487-41.653-79.103-48.841-22.927-10.596-16.329 12.226-16.329 12.226l13.578 78.234c-75.202 52.386-123.503 133.263-123.503 224.093 0 157.947 145.829 285.987 325.731 285.987 110.248 0 207.595-48.116 266.568-121.692l-319.489-147.921c0 0-26.038-9.853-48.859 4.065-22.835 13.921-52.964 36.78-52.964 36.78s-35.076 29.841-16.249-24.523l48.877-114.379c0 0 5.771-34.088 44.739-12.275 30.521 17.042 267.288 159.826 369.087 221.264 21.757-38.349 34.055-81.54 34.055-127.305-0.001-157.965-145.843-286.001-325.747-286.001z"  horiz-adv-x="1024" />

    
    <glyph glyph-name="wenhao" unicode="&#59156;" d="M511.772672 836.18816c-251.664384 0-455.68-204.014592-455.68-455.68 0-251.665408 204.015616-455.68 455.68-455.68 251.665408 0 455.68 204.014592 455.68 455.68C967.452672 632.173568 763.43808 836.18816 511.772672 836.18816zM508.056576 109.391872c-18.097152 0-32.768 14.670848-32.768 32.768 0 18.097152 14.670848 32.768 32.768 32.768 18.097152 0 32.768-14.670848 32.768-32.768C540.824576 124.06272 526.153728 109.391872 508.056576 109.391872zM658.07872 438.013952c-10.41408-18.74432-30.779392-41.539584-61.09184-68.380672-20.366336-18.050048-33.670144-31.36-39.917568-39.918592-6.248448-8.562688-10.88-18.39616-13.88544-29.503488-3.01056-11.108352-4.74624-29.157376-5.206016-54.150144l-0.029696 0c0.002048-0.149504 0.011264-0.297984 0.011264-0.448512 0-16.610304-13.464576-30.07488-30.07488-30.07488-16.60928 0-30.07488 13.464576-30.07488 30.07488 0 0.677888-0.2304 15.296512-0.2304 19.191808 0 24.526848 3.47136 45.700096 10.413056 63.521792 5.087232 13.418496 13.304832 26.955776 24.645632 40.612864 8.33024 9.947136 23.31136 24.470528 44.951552 43.563008 21.635072 19.091456 35.692544 34.304 42.17344 45.6448 6.475776 11.336704 9.718784 23.718912 9.718784 37.141504 0 24.297472-9.490432 45.6448-28.463104 64.041984-18.976768 18.39616-42.233856 27.594752-69.769216 27.594752-26.61376 0-48.82944-8.33024-66.644992-24.99072-17.589248-16.444416-29.187072-42.0352-34.82624-76.736512-1.165312-16.822272-15.171584-30.109696-32.289792-30.109696-17.882112 0-32.377856 14.495744-32.377856 32.376832 0 1.355776 0.093184 2.688 0.254976 4.000768l-0.03584 0.004096c5.781504 47.435776 22.9632 83.767296 51.546112 108.993536 28.576768 25.219072 66.352128 37.834752 113.3312 37.834752 49.75104 0 89.43616-13.536256 119.06048-40.61184 29.618176-27.07456 44.429312-59.82208 44.429312-98.233344C673.698816 477.237248 668.491776 456.757248 658.07872 438.013952z"  horiz-adv-x="1024" />

    
    <glyph glyph-name="jinggao" unicode="&#58881;" d="M945.741044 92.562774 754.043246 448.39035 753.779636 448.084 571.564552 772.338913C538.602854 827.927592 480.388512 829.805922 441.53813 766.354249L250.141304 413.302394 251.070168 413.332308 78.258924 92.562774C42.981814 27.082174 67.012925-26 131.933768-26L345.35349-26 678.647516-26 892.067238-26C956.987044-26 981.018154 27.082174 945.741044 92.562774ZM497.826686 722.569167C505.651768 737.171729 518.33959 737.17039 526.164124 722.569168L878.830422 64.464958C886.655674 49.862396 879.571664 38.024682 863.010752 38.02468L160.988007 38.02466C144.425793 38.024658 137.343666 49.863714 145.168031 64.464936L497.826686 722.569167ZM554.536864 100.296834C554.536864 91.18162 549.582324 83.793106 543.469902 83.793106L480.53071 83.793106C474.418288 83.793106 469.463748 91.18162 469.463748 100.296834L469.463748 194.155592C469.463748 203.270808 474.418288 210.65932 480.53071 210.65932L543.469902 210.65932C549.582324 210.65932 554.536864 203.270808 554.536864 194.155592L554.536864 100.296834ZM553.975216 286.17728C553.838262 281.239572 552.233552 277.26011 550.390212 277.26011L473.611784 277.26011C471.768442 277.26011 470.163734 281.239572 470.02678 286.17728L463.412886 525.003746C463.228208 531.667124 464.83015 537.106134 466.991666 537.106134L557.011022 537.106134C559.171846 537.107166 560.773096 531.668156 560.589108 525.003746L553.975216 286.17728Z"  horiz-adv-x="1024" />

    
    <glyph glyph-name="jiahao" unicode="&#58976;" d="M512-62.017c-119.648 0-232.129 46.368-316.737 130.56C110.623 152.798 64 264.799 64 383.998c0 119.169 46.624 231.2 131.232 315.425 84.608 84.191 197.089 130.56 316.737 130.56s232.129-46.369 316.704-130.56c84.672-84.225 131.263-196.256 131.263-315.392 0.033-119.2-46.591-231.233-131.263-315.455C744.13-15.616 631.648-62.017 512-62.017z m0 828.034c-102.624 0-199.072-39.744-271.583-111.937C167.937 581.952 128 486.016 128 384s39.903-197.952 112.384-270.047c72.512-72.192 168.96-111.937 271.583-111.937 102.593 0 199.072 39.744 271.584 111.937 72.48 72.16 112.416 168.063 112.384 270.08 0 102.016-39.904 197.919-112.384 270.016C711.07 726.24 614.593 766.017 512 766.017zM736 416H544V608c0 17.664-14.335 32-32 32s-32-14.336-32-32v-192H288c-17.664 0-32-14.337-32-32.002s14.336-32 32-32h192v-192c0-17.696 14.337-32.001 32.002-32.001s32 14.303 32 32V352h192c17.696 0 32.001 14.336 32.001 32.001s-14.306 32-32.002 32z"  horiz-adv-x="1024" />

    
    <glyph glyph-name="dianhua" unicode="&#58920;" d="M575.7 248.9l69.4 69.2 13.3-2.3c1.7-0.3 4.9-0.9 9.4-1.7 7.4-1.3 15.7-2.9 24.6-4.5 25.5-4.8 50.9-9.8 74.8-14.9 17.3-3.7 33.1-7.3 47-10.7 27.6-6.8 47.3-12.9 59.1-18.6 43-20.8 60-65.5 53.4-122-9.7-81.3-97-174.3-204.4-175.4-121-1.2-291.4 87.7-411.9 214.7-145.1 152.9-228.6 306.4-212.4 435 8.5 67.1 40.2 115.9 87.8 147.2 32.4 21.3 69.4 32.5 97.9 34.6 38.2 2.8 69.6-9.6 92.5-38 9.7-12 19.7-36.1 32.2-73.3 3.6-10.9 7.4-22.8 11.3-35.4 7-23 14.1-47.6 20.9-72.2 2.4-8.6 4.5-16.6 6.4-23.7 1.1-4.3 2-7.4 2.4-9.1l3.7-14.2-80.4-81.8c44.5-89 122.6-169.8 203-202.9zM589.2 188.9l-15.3 5.1c-105.4 35.6-205.4 139.4-256.3 252.3l-7.3 16.2 85 86.4c-1.5 5.6-3.1 11.6-4.9 17.9-6.6 24.1-13.5 48.2-20.4 70.7-3.8 12.3-7.4 23.7-10.9 34.2-10.2 30.5-19.1 52-23.3 57.2-11.8 14.6-26.4 20.4-48.2 18.8-20.2-1.5-48.7-10.1-73.1-26.2-35.2-23.2-58.3-58.6-64.8-110.3-13.8-108.7 63.1-250.2 198.4-392.7 111.4-117.4 268.9-199.5 373.7-198.5 79.2 0.8 146.4 72.5 153.2 129.4 4.3 36.6-4.3 59.4-24.4 69.1-7.5 3.6-24.7 8.9-48.9 14.9-13.4 3.3-28.6 6.8-45.4 10.4-23.3 5-48.4 10-73.5 14.7-7.2 1.3-13.9 2.6-20.1 3.7l-73.5-73.3z"  horiz-adv-x="1024" />

    
    <glyph glyph-name="jiaguanzhu" unicode="&#58983;" d="M976.315399 11.665175h-116.359204v-116.359204c0-13.993334-9.312637-23.281592-23.281593-23.281592-13.944577 0-23.281592 9.288258-23.281592 23.281592v116.359204H697.033806c-13.944577 0-23.257214 9.288258-23.257213 23.232835 0 13.993334 9.312637 23.281592 23.257213 23.281592h116.359204v116.359204c0 13.944577 9.337016 23.281592 23.281592 23.281592 13.968955 0 23.281592-9.337016 23.281593-23.281592v-116.359204h116.359204c13.944577 0 23.257214-9.288258 23.257213-23.281592a23.281592 23.281592 0 0 0-23.257213-23.232835z m-244.371394 239.690696c-48.903533 46.563184-109.386916 79.133035-176.891343 97.758309 0 0-23.281592 6.94791-23.281593 27.913532s23.281592 27.937911 23.281593 27.93791c81.449005 34.910199 139.640796 118.650795 139.640796 214.117513 0 127.987811-104.730597 232.742786-232.718408 232.742786-128.036568 0-232.742786-104.754976-232.742786-232.742786 0-95.466717 58.167413-176.891344 139.665174-214.117513 0 0 27.913532-6.996667 27.913532-27.93791s-27.913532-27.913532-27.913532-27.913532C236.228931 316.495572 126.817636 214.105323 87.275498 81.461194c-4.656318 0-16.309304-69.796019-16.309304-69.796019h509.68403c13.968955 0 23.257214-9.337016 23.257213-23.281592 0-13.993334-9.288258-23.281592-23.257213-23.281593H68.625845c-4.656318 0-6.972288 2.340349-11.628607 2.340349C38.371965-27.9501 24.427388-9.300448 24.427388 11.665175c0 4.607561 0 6.94791 2.364727 11.628607 20.892486 165.21398 134.984478 302.538806 288.569851 358.390248-79.133035 48.854776-130.352538 134.984478-130.352538 235.034378C185.009428 770.303781 310.681268 896 464.29102 896c153.63413 0 279.257214-125.696219 279.257214-279.305971 0-100.0499-51.195124-186.179602-130.303781-235.034378 55.851443-20.941244 107.046567-51.195124 148.929054-90.761641 0 0 20.941244-20.941244 9.312637-37.274926-11.628607-18.552138-30.253881-9.26388-39.542139-2.267213z"  horiz-adv-x="1024" />

    
    <glyph glyph-name="cha" unicode="&#58905;" d="M826.368 125.952l-272.384 258.56L816.64 660.48c10.752 10.752 10.752 31.232 0 41.984s-31.232 10.752-41.984 0l-262.656-276.48-276.48 258.56c-10.752 10.752-31.232 10.752-41.984 0-9.216-9.216-8.192-23.552 4.096-41.472v-0.512L469.504 384l-262.656-275.968c-10.752-10.752-10.752-31.232 0-41.984l1.024-0.512c9.728-5.12 15.36-5.12 24.576-5.12 6.144 0 16.384 5.632 20.992 10.24l258.048 271.872 275.968-262.656c5.632-5.632 11.264-5.632 20.992-5.632 6.144 0 16.384 5.632 20.992 10.24 10.24 9.216 8.704 23.04-3.072 41.472z"  horiz-adv-x="1024" />

    
    <glyph glyph-name="ren" unicode="&#58926;" d="M295.497143 29.988571c17.554286 131.657143 73.142857 242.834286 216.502857 242.834286s198.948571-111.177143 216.502857-242.834286H789.942857c-20.48 163.84-102.4 304.274286-277.942857 304.274286S254.537143 196.754286 234.057143 29.988571h61.44zM512 357.668571c105.325714 0 190.171429 84.845714 190.171429 190.171429s-84.845714 190.171429-190.171429 190.171429S321.828571 653.165714 321.828571 547.84s84.845714-190.171429 190.171429-190.171429z m0 315.977143c70.217143 0 125.805714-55.588571 125.805714-125.805714s-55.588571-125.805714-125.805714-125.805714-125.805714 55.588571-125.805714 125.805714 55.588571 125.805714 125.805714 125.805714z"  horiz-adv-x="1024" />

    
    <glyph glyph-name="doublearrowleft" unicode="&#58930;" d="M479.612 104.329l33.448 33.45-229.967 229.946 229.967 230.026-33.468 33.409-263.416-263.394zM744.245 104.329l33.449 33.45-229.967 229.946 229.967 230.026-33.469 33.409-263.415-263.394z"  horiz-adv-x="1024" />

    
    <glyph glyph-name="shuangjiantou-right" unicode="&#58883;" d="M544.388 663.671l-33.448-33.45 229.967-229.946-229.967-230.026 33.468-33.409 263.416 263.394zM279.755 663.671l-33.449-33.45 229.967-229.946-229.967-230.026 33.469-33.409 263.415 263.394z"  horiz-adv-x="1024" />

    
    <glyph glyph-name="huxiangguanzhu" unicode="&#59113;" d="M622.550839-30.527015H114.674763s39.60502 303.707047 298.201659 352.299765c0 0 27.956725 7.28901 27.956725 29.155017 0 21.868053-27.956725 29.15604-27.956725 29.15604-81.539085 38.875402-139.78158 123.912148-139.78158 223.531006 0 133.627417 104.836697 242.959497 232.971005 242.959498 128.133286 0 232.966912-109.333104 232.966913-242.959498 0-99.617835-58.238402-187.084932-139.779534-223.531006 0 0-23.295566-7.286963-23.295565-29.15604 0-21.866007 23.295566-29.155017 23.295565-29.155017 90.860381-21.86703 167.740352-77.748758 221.326805-153.069211 4.65809-9.719362 11.647271-14.576997 20.962427-14.576997 13.979386 0 23.301705 12.146645 23.301706 24.297383 0 0-20.969591 85.035722-209.67851 177.363523 79.209016 51.02307 130.464377 140.919497 130.464377 245.394966 0 160.359244-125.803217 291.556309-279.564184 291.556309S226.500641 761.543705 226.500641 601.182414c0-104.47547 51.253314-194.371896 130.464377-245.394966-153.761989-58.31208-267.918959-201.660906-288.886503-374.164748v-12.149715s0-48.592718 41.935088-48.592718h512.537236s23.297612 0 23.297612 24.296359c0.001023 24.296359-23.297612 24.296359-23.297612 24.296359zM719.442586-1.435443h226.216161c11.31265 0 20.515243 9.202593 20.515243 20.515243s-9.202593 20.516266-20.515243 20.516266h-176.776145l26.761503 26.672476c7.998161 7.999185 7.998161 21.013593 0.001024 29.012777a20.382213 20.382213 0 0 1-14.508436 6.009878 20.384259 20.384259 0 0 1-14.507412-6.008854l-61.69513-61.695131a20.455891 20.455891 0 0 1-4.447289-22.358217 20.457938 20.457938 0 0 1 18.955724-12.664438zM964.612425-34.765549a20.454868 20.454868 0 0 1-18.953678 12.665461H719.442586c-11.31265 0-20.515243-9.203616-20.515243-20.516266s9.202593-20.515243 20.515243-20.515243h176.776146L869.456205-89.805096c-7.997138-7.999185-7.996115-21.014616 0.001023-29.013801 4.000104-3.999081 9.252735-5.998621 14.506389-5.998621 5.253654 0.001023 10.508331 2.000564 14.508435 5.998621l61.695131 61.695131a20.456914 20.456914 0 0 1 4.445242 22.358217z"  horiz-adv-x="1024" />

    
    <glyph glyph-name="quanquan" unicode="&#58909;" d="M512.011 795.137c226.688 0 411.128-184.439 411.128-411.129 0-226.719-184.439-411.129-411.128-411.129s-411.128 184.41-411.128 411.129c-0.001 226.689 184.439 411.129 411.128 411.129m0 63.234c-261.989 0-474.379-212.373-474.379-474.363 0-262.02 212.39-474.379 474.379-474.379S986.39 121.988 986.39 384.008c0 261.99-212.39 474.363-474.379 474.363"  horiz-adv-x="1024" />

    
    <glyph glyph-name="shibai" unicode="&#58947;" d="M512 844.8C258.048 844.8 51.2 637.952 51.2 384S258.048-76.8 512-76.8 972.8 130.048 972.8 384 765.952 844.8 512 844.8z m174.08-604.16c8.192-8.192 8.192-20.48 0-28.672s-20.48-8.192-28.672 0L512 357.376 366.592 211.968c-8.192-8.192-20.48-8.192-28.672 0s-8.192 20.48 0 28.672l145.408 145.408L337.92 531.456c-8.192 8.192-8.192 20.48 0 28.672s20.48 8.192 28.672 0L512 414.72l145.408 145.408c8.192 8.192 20.48 8.192 28.672 0s8.192-20.48 0-28.672L540.672 386.048 686.08 240.64z"  horiz-adv-x="1024" />

    
    <glyph glyph-name="dingwei1" unicode="&#58900;" d="M518.6 896c-236.4 0-428-190.4-428-425 0-108 40.8-206 107.4-281 1.8-3.4 4.2-6.8 7-9.8l278-289.2c1.4-1.8 2.8-3.8 4.4-5.4 4.2-4.2 9-7.2 14.2-9.4 16-7.4 35.4-5 48.4 8 3.6 3.6 6.4 7.8 8.4 12.2l272.8 283.8c2.6 2.4 4.6 5.4 6.4 8.4 67.4 75 108.6 173.8 108.6 282.2C946.6 705.6 755 896 518.6 896z m-0.2-597.8c-106.4 0-192.8 85.8-192.8 191.4 0 105.6 86.4 191.4 192.8 191.4s192.8-85.8 192.8-191.4c0-105.6-86.4-191.4-192.8-191.4z"  horiz-adv-x="1024" />

    
    <glyph glyph-name="jia" unicode="&#58964;" d="M512 830.992C265.168 830.992 65.008 630.848 65.008 384s200.16-447.008 447.008-447.008c246.848 0 447.008 200.16 447.008 447.008C959.008 630.848 758.848 830.992 512 830.992z m208.592-461.904H526.88v-193.68h-29.792V369.088H303.392v29.808h193.68V592.608h29.792v-193.696h193.712v-29.824z"  horiz-adv-x="1024" />

    
    <glyph glyph-name="riqi" unicode="&#59033;" d="M191.67763 28.027259A77.672296 77.672296 0 0 0 113.777778 105.244444V615.992889c0 42.590815 34.929778 77.217185 77.899852 77.217185h59.467851V718.127407c0 14.411852 11.832889 26.168889 26.396445 26.168889 14.52563 0 26.358519-11.757037 26.358518-26.168889v-24.917333h427.994075V718.127407c0 14.411852 11.832889 26.168889 26.396444 26.168889 14.563556 0 26.396444-11.757037 26.396444-26.168889v-24.917333h59.467852c42.932148 0 77.899852-34.62637 77.899852-77.217185V105.244444a77.672296 77.672296 0 0 0-77.899852-77.217185H191.67763zM166.494815 105.244444a25.031111 25.031111 0 0 1 25.144889-24.879407h652.477629a25.031111 25.031111 0 0 1 25.106963 24.879407v365.416297H166.532741v-365.416297z m702.767407 417.754075V615.992889a25.031111 25.031111 0 0 1-25.144889 24.917333H784.687407v-24.917333c0-14.411852-11.832889-26.168889-26.396444-26.168889a26.320593 26.320593 0 0 0-26.396444 26.168889v24.917333H303.900444v-24.917333c0-14.411852-11.832889-26.168889-26.358518-26.168889a26.320593 26.320593 0 0 0-26.396445 26.168889v24.917333H191.67763a25.031111 25.031111 0 0 1-25.106963-24.917333v-92.99437H869.262222z"  horiz-adv-x="1024" />

    
    <glyph glyph-name="praise-hollow" unicode="&#58927;" d="M190.193 424.588c14.446 0 26.14 11.72 26.14 26.139 0 14.445-11.694 26.165-26.14 26.165-0.271 0-0.49-0.15-0.737-0.15l-62.496-0.146a32.345 32.345 0 0 1-4.374 0.296c-19.677 0-35.62-16.142-35.62-36.115l-0.344-433.327c0-19.95 15.968-35.598 35.67-35.598 1.917 0 3.81-0.292 5.65 0l61.023-0.022c0.1 0 0.149-0.048 0.248-0.048 0.097 0 0.146 0.048 0.244 0.048h0.737v0.148c13.414 0.54 24.175 11.422 24.175 24.96 0 13.56-10.76 24.442-24.175 24.982v0.394h-50.95l1.45 402.276h49.5z m736.33 37.464c-19.284 31.445-47.34 44.172-81.29 45.546a38.646 38.646 0 0 1-5.38 0.393l-205.448 0.689c13.463 39.06 22.7 85.589 22.7 129.317 0 28.35-3.194 55.962-9.043 82.543l-0.49-0.05c-10.638 46.58-51.736 81.316-100.966 81.316-57.265 0-95.467-48.151-95.467-106.126 0-3.242-0.294-6.388 0-9.532-2.996-108.387-91.24-195.55-196.236-207.514v-54.882l-0.786-222.227v-229.744h10.71l500.025-0.223 8.747 0.244c19.356-0.05 30.24 4.818 47.803 16.116 16.683 10.761 29.237 25.5 37.491 42.156 2.26 3.341 4.029 7.075 5.106 11.201L941.018 385.6c1.056 4.054 1.348 8.182 1.056 12.161 1.57 21.794-3.292 44.295-15.552 64.292z m-32.697-52.89L810.842 41.38l-0.1 0.049c-2.555-6.142-6.88-11.596-12.872-15.428a32.208 32.208 0 0 0-13.414-4.964c-1.498 0.196-3.047 0-4.62 0l-477.029 0.54-0.172 407.41c89.324 40.266 154.842 79.67 188.596 173.66 0.073-0.024 0.125-0.048 0.196-0.072 3 9.137 6.314 20.734 8.697 33.164 5.551 29.186 5.259 58.124 5.259 58.124-4.938 37.98 25.94 52.966 44.364 52.966 25.305-0.861 50.264-33.657 50.264-52.327 0 0 5.6-27.564 5.65-57.19 0.048-37.367-4.668-56.848-4.668-56.848h-0.466c-5.873-30.88-16.215-60.14-30.465-86.965l0.368-0.343a36.146 36.146 0 0 1-3.71-15.943c0-19.923 19.09-21.742 38.767-21.742l238.762-0.27 14.69-0.466v-0.1c12.132 0.638 24.222-5.208 31.1-16.41 5.505-9.016 6.438-19.605 3.487-28.988l0.3-0.074z m-628.999-437.48c0.32-0.025 0.441-0.025 0.296 0.024 0.243 0.048 0.367 0.075-0.296 0.075s-0.54-0.027-0.271-0.075c-0.122-0.05-0.024-0.05 0.271-0.025z"  horiz-adv-x="1024" />

    
    <glyph glyph-name="dizhi" unicode="&#58888;" d="M512.706-94.405H512c-16.62 0-32.696 6.894-44.108 18.916-9.013 9.441-90.886 95.915-172.292 205.435-109.92 147.88-165.654 265.774-165.654 350.408 0 210.665 171.389 382.054 382.054 382.054 210.662 0 382.048-171.388 382.048-382.053 0-51.21-19.694-113.914-58.537-186.374-37.454-69.867-93.787-151.036-167.436-241.25l-0.611-0.725-109.623-125.58c-11.617-13.254-28.055-20.831-45.136-20.831z m-0.704 899.31c-178.958 0-324.552-145.593-324.552-324.551 0-70.993 53.357-180.3 154.3-316.104 80.719-108.593 164.276-196.408 167.794-200.092a3.31 3.31 0 0 1 2.458-1.06h0.704c0.255 0 1.075 0.299 1.854 1.188l109.275 125.18c71.17 87.21 125.334 165.157 160.996 231.683 34.316 64.015 51.716 117.579 51.716 159.206 0 178.957-145.59 324.55-324.545 324.55z m0-503.395c-98.615 0-178.844 80.229-178.844 178.844 0 98.614 80.229 178.843 178.844 178.843s178.843-80.229 178.843-178.843c0-98.615-80.229-178.844-178.843-178.844z m0 300.184c-66.907 0-121.341-54.433-121.341-121.34 0-66.907 54.434-121.34 121.34-121.34 66.908 0 121.34 54.433 121.34 121.34 0 66.907-54.432 121.34-121.34 121.34z"  horiz-adv-x="1024" />

    
    <glyph glyph-name="weixinzhifu" unicode="&#58918;" d="M390.384904 251.151818c-61.341087-37.009123-70.388898 20.753735-70.388898 20.753734L243.217412 466.101212c-29.597075 92.267219 25.558786 41.558587 25.558786 41.558587s47.334873-38.74712 83.219409-62.363439c35.884536-23.616319 76.778595-6.900872 76.778595-6.900873l502.179036 251.038401C838.277078 814.314118 685.231065 896 511.99361 896 229.211197 896 0 678.699198 0 410.587528c0-154.221717 75.858478-291.421283 194.144542-380.314743l-21.367146-132.752337s-10.376867-38.74712 25.661022-20.753734c24.536435 12.2171 87.104344 56.178213 124.317937 82.912703 60.523206-22.798438 124.624643-34.453244 189.237255-34.402127 282.782413 0 512.044728 217.300802 512.044728 485.361355a462.92074 462.92074 0 0 1-53.520099 216.073981c-160.049121-104.330966-532.185052-346.628262-580.133335-375.560808z m0 0"  horiz-adv-x="1025" />

    
    <glyph glyph-name="qita" unicode="&#58936;" d="M510.72 879.36C237.14176 879.36 15.36 657.57568 15.36 383.99488c0-273.58336 221.78176-495.36896 495.36-495.36896 273.58464 0 495.37024 221.7856 495.37024 495.36896C1006.09024 657.57568 784.30464 879.36 510.72 879.36z m0-941.43744c-246.3552 0-446.0672 199.71328-446.0672 446.07232C64.6528 630.35008 264.3648 830.06848 510.72 830.06848c246.36544 0 446.07744-199.7184 446.07744-446.0736 0-246.35904-199.712-446.07232-446.07744-446.07232z m0 0M251.27168 386.2912c0-27.8592 22.58688-50.4448 50.4448-50.4448s50.43968 22.58688 50.43968 50.4448c0 27.85792-22.58176 50.43968-50.43968 50.43968s-50.4448-22.58176-50.4448-50.43968z m211.66848 0c0-27.8592 22.58176-50.4448 50.43968-50.4448 27.8592 0 50.4448 22.58688 50.4448 50.4448 0 27.85792-22.58688 50.43968-50.4448 50.43968-27.85792 0-50.43968-22.58176-50.43968-50.43968z m211.66464 0c0-27.8592 22.58688-50.4448 50.44352-50.4448 27.8592 0 50.43968 22.58688 50.43968 50.4448 0 27.85792-22.58176 50.43968-50.43968 50.43968-27.85664 0-50.44352-22.58176-50.44352-50.43968z m0 0"  horiz-adv-x="1024" />

    
    <glyph glyph-name="hongqi" unicode="&#58922;" d="M862.983 746.597a30.003 30.003 0 0 1-28.104 2.828l-79.323-32.594c-23.818-9.787-48.919-14.75-74.605-14.75-24.691 0-48.888 4.598-71.916 13.667l-166.036 65.39c-31.967 12.589-65.564 18.973-99.858 18.973-35.484 0-70.164-6.818-103.076-20.264l-74.411-30.399A30.001 30.001 0 0 1 147 721.676V-2c0-16.568 13.432-30 30-30s30 13.432 30 30V346.444l55.756 22.779c25.674 10.488 52.719 15.807 80.384 15.807 26.737 0 52.937-4.979 77.872-14.8l166.036-65.389C617.108 293.003 648.702 287 680.95 287c33.547 0 66.32 6.478 97.409 19.252l79.323 32.594a30 30 0 0 1 18.599 27.749V721.676a30 30 0 0 1-13.298 24.921z m-46.702-359.895l-60.726-24.952C731.737 351.963 706.637 347 680.95 347c-24.691 0-48.888 4.599-71.916 13.668l-166.036 65.39c-31.967 12.589-65.564 18.973-99.858 18.973-35.484 0-70.164-6.817-103.076-20.264L207 411.258V701.525l55.757 22.779c25.673 10.489 52.719 15.807 80.384 15.807 26.737 0 52.937-4.979 77.872-14.799l166.036-65.39c30.061-11.838 61.654-17.841 93.902-17.841 33.547 0 66.32 6.477 97.41 19.252l37.921 15.582v-290.213z"  horiz-adv-x="1024" />

    
    <glyph glyph-name="pingjia" unicode="&#58890;" d="M532.992 152.064l-56.32 2.048h-1.024c-62.464 7.168-121.856 30.208-171.008 66.56-53.248 39.424-92.16 92.16-112.128 153.088-24.576 75.264-21.504 159.232-18.432 240.128 1.024 25.088 1.536 49.152 1.536 72.704 0 29.696 24.064 54.784 52.224 54.272 44.032-1.024 79.36-11.776 116.736-29.696 10.752 28.672 25.6 54.272 44.544 76.8C433.152 839.68 472.064 865.28 506.88 865.28c22.528 0 47.616-10.752 73.728-31.232 17.92-14.336 36.864-33.792 50.688-52.736 17.408-23.04 29.696-47.616 38.4-73.728 40.448 17.92 79.872 31.232 126.976 32.768h1.536c13.312 0 26.112-5.632 35.328-15.872 9.728-10.24 15.36-24.064 15.36-38.4 0-43.52-1.024-87.04-1.536-129.536 0-9.728-0.512-19.456-0.512-29.184v-20.992c-0.512-40.448-0.512-82.432-13.824-122.88-43.008-132.608-163.84-225.792-300.032-232.448v1.024zM479.744 195.584l53.76-2.048c119.808 6.144 225.28 88.064 262.656 203.776 10.752 33.792 11.264 72.704 11.264 110.08v22.016c0 9.728 0.512 19.968 0.512 29.696 0.512 43.52 1.536 88.576 1.536 132.608 0 0.512-0.512 2.048-1.536 3.072-0.512 0.512-1.536 1.024-1.536 1.024-49.152-1.536-90.112-18.944-137.728-41.472l-27.648-12.8-6.656 31.232c-6.656 31.232-18.944 58.88-38.4 85.504-23.552 32.256-62.976 66.56-88.576 66.56-11.776 0-38.4-8.192-84.48-62.464-20.992-24.576-35.84-54.272-44.032-87.552l-7.68-30.72-27.136 14.336c-44.032 23.04-78.336 36.864-124.928 37.888-1.024 0-3.072-2.048-3.072-4.096 0-25.088-1.024-50.176-2.048-76.8-3.072-78.336-5.632-159.744 16.384-227.84 34.304-102.4 131.584-177.152 249.344-192zM401.408-11.264c-8.192 0-16.384 4.608-20.992 12.8-30.72 55.808-80.384 128-143.36 153.6-25.6 10.24-60.416 12.288-90.112 4.096-18.432-4.608-51.712-17.92-64.512-49.664-5.12-12.8-19.456-18.944-31.232-13.312-12.288 5.632-17.92 19.968-12.8 32.768 15.36 38.912 50.176 67.072 97.28 79.36 39.424 10.24 83.968 8.192 119.296-6.144 34.304-13.824 67.584-39.424 99.328-75.264 24.064-27.648 47.104-61.44 68.608-100.864 6.656-12.288 2.56-27.648-9.216-34.304-4.096-1.536-8.192-3.072-12.288-3.072zM622.08-11.264c-4.096 0-8.192 1.024-11.776 3.072-11.776 6.656-15.36 22.016-9.216 34.304 21.504 39.424 44.544 73.216 68.608 100.864 31.232 35.84 65.024 61.44 99.328 75.264 34.816 14.336 79.36 16.384 119.296 6.144 47.104-12.288 81.92-40.448 97.28-79.36 5.12-12.8-0.512-27.648-12.8-32.768-12.288-5.632-26.112 0.512-31.232 13.312-12.8 32.256-46.08 45.056-64.512 49.664-30.208 7.68-64.512 6.144-90.112-4.096-62.976-25.6-112.64-97.792-143.36-153.6-5.12-8.192-13.312-12.8-21.504-12.8zM511.488-53.76c-13.312 0-24.064 10.752-24.064 24.064v197.12c0 13.312 10.752 24.064 24.064 24.064s24.064-10.752 24.064-24.064v-197.12c0-13.312-10.752-24.064-24.064-24.064z"  horiz-adv-x="1024" />

    
    <glyph glyph-name="renyuanguanli" unicode="&#59023;" d="M108.714667 37.76c-27.170133-9.736533-44.714667-32.3072-44.714667-52.9152v-23.970133c0-15.0784 11.588267-24.874667 36.0704-24.874667h822.792533c24.490667 0 36.087467 9.796267 36.087467 24.874667v23.970133c0 21.12-18.039467 44.7232-42.496 53.4784L688.930133 126.754133c-2.833067 1.1008-7.253333 2.901333-12.782933 5.307734a393.6256 393.6256 0 0 0-27.272533 13.056c-15.6672 8.311467-28.6976 16.759467-39.466667 26.794666-0.9984 0.938667-0.9984 0.938667-2.013867 1.928534-33.3568 32.699733-33.194667 77.098667-16.955733 131.3024 4.650667 15.5392 11.281067 26.709333 29.969067 54.9888a3821.909333 3821.909333 0 0 0 9.1392 13.781333c3.8144 5.76 6.7584 10.222933 9.685333 14.702933a1063.253333 1063.253333 0 0 1 20.113067 31.880534c27.229867 45.090133 44.629333 84.036267 51.106133 118.203733 1.792 9.429333 2.679467 18.269867 2.679467 26.504533 0 148.5312-94.097067 264.285867-202.862934 264.285867-108.757333 0-202.845867-115.754667-202.845866-264.2944 0-12.270933 1.877333-26.112 5.649066-41.301333 7.867733-31.761067 23.3216-67.336533 44.817067-105.7024 15.4624-27.5968 56.2432-90.3936 58.2144-94.1568 23.304533-44.526933 21.179733-110.890667-9.4208-145.092267-14.037333-15.5136-31.650133-25.745067-55.432533-36.096-9.728-4.224-19.831467-8.106667-29.909334-11.630933-3.8656-1.348267-7.236267-2.474667-9.9584-3.362134l-202.6496-90.094933z m829.329066 60.817067c47.607467-17.0496 84.906667-63.197867 84.906667-113.732267v-23.970133c0-55.133867-44.893867-88.874667-100.087467-88.874667H100.0704C44.885333-128 0-94.2592 0-39.125333v23.970133c0 50.517333 37.290667 95.300267 84.898133 112.3584l203.733334 90.581333s55.227733 16.930133 70.3488 33.834667c10.0608 11.246933 13.166933 48.375467 0.4096 72.738133-12.731733 24.362667-115.976533 158.404267-115.976534 270.839467 0 181.2992 119.466667 328.2944 266.837334 328.2944C657.646933 893.4912 777.130667 746.496 777.130667 565.205333c0-117.393067-115.8656-246.621867-125.3888-278.417066-9.5232-31.7952-10.299733-56.695467 0.4608-67.242667 16.7424-16.418133 59.844267-33.109333 59.844266-33.109333l226.005334-87.8592z"  horiz-adv-x="1024" />

    
    <glyph glyph-name="pinglun" unicode="&#58968;" d="M598.413092 93.547839l-61.565171-80.516802c-5.823636-7.493671-15.031345-11.924587-24.792662-11.924587-9.8176 0-19.024286 4.430916-24.792663 11.924587l-61.565171 80.516802C228.354871 125.984598 86.476537 264.373459 86.476537 426.500976c0 187.67231 190.852746 340.392574 425.578722 340.392574 234.614435 0 425.468205-152.720264 425.468204-340.392574 0.055259-162.127518-141.878334-300.516378-339.110371-332.953137z m-86.567611 616.171547c-201.070458 0-364.55488-128.241756-364.55488-285.926078 0-138.442072 126.174678-256.650311 300.026214-281.019325 8.149611-1.157359 15.467273-5.403057 20.290116-11.688203l44.23855-58.277288 44.128033 58.331523c4.878101 6.285147 12.140505 10.475586 20.345374 11.632945 173.795255 24.369014 299.914674 142.577253 299.914674 281.019325 0.055259 157.685345-163.317623 285.927101-364.388081 285.927101z m212.657354-349.610516c-33.539884 0-60.758806 27.109428-60.758805 60.398602 0 33.405831 27.164686 60.515259 60.758805 60.515259s60.870346-27.109428 60.870346-60.515259c-0.001023-33.289174-27.331485-60.398602-60.870346-60.398602z m-212.600049 0c-33.571606 0-60.817134 27.109428-60.817134 60.398602 0 33.405831 27.245528 60.515259 60.817134 60.515259s60.760852-27.109428 60.760852-60.515259c0.056282-33.289174-27.189246-60.398602-60.760852-60.398602z m-0.057305 63.684438v-28.559453 28.559453z m-212.601073-63.684438c-33.539884 0-60.814064 27.109428-60.814064 60.398602 0 33.405831 27.275203 60.515259 60.814064 60.515259 33.483602 0 60.758806-27.109428 60.758806-60.515259-0.055259-33.289174-27.275203-60.398602-60.758806-60.398602z m0 63.684438v-28.559453 28.559453z"  horiz-adv-x="1024" />

    
    <glyph glyph-name="icon--" unicode="&#59219;" d="M704 793.6h-307.2c-53.76 0-102.4-48.64-102.4-102.4h-30.72c-53.76 0-97.28-48.64-97.28-102.4v-512c0-53.76 48.64-102.4 102.4-102.4h384c53.76 0 102.4 48.64 102.4 102.4h25.6c53.76 0 102.4 48.64 102.4 102.4V588.8l-179.2 204.8z m-51.2-768h-384c-25.6 0-51.2 25.6-51.2 51.2V588.8c0 25.6 23.04 51.2 48.64 51.2h28.16v-460.8c0-53.76 48.64-102.4 102.4-102.4h307.2c0-25.6-25.6-51.2-51.2-51.2z m179.2 153.6c0-25.6-25.6-51.2-51.2-51.2h-384c-25.6 0-51.2 25.6-51.2 51.2V691.2c0 25.6 25.6 51.2 51.2 51.2h256v-102.4c0-53.76 48.64-102.4 102.4-102.4h76.8v-358.4z m-76.8 409.6c-28.16 0-51.2 48.64-51.2 76.8V742.4l128-153.6h-76.8z m-51.2-153.6h-230.4c-15.36 0-25.6-10.24-25.6-25.6s10.24-25.6 25.6-25.6h230.4c15.36 0 25.6 10.24 25.6 25.6 0 12.8-10.24 25.6-25.6 25.6z m0-128h-230.4c-15.36 0-25.6-10.24-25.6-25.6s10.24-25.6 25.6-25.6h230.4c15.36 0 25.6 10.24 25.6 25.6 0 12.8-10.24 25.6-25.6 25.6z"  horiz-adv-x="1024" />

    
    <glyph glyph-name="chahao" unicode="&#58938;" d="M512-128C229.216-128 0 101.248 0 384 0 666.784 229.216 896 512 896c282.752 0 512-229.248 512-512s-229.248-512-512-512z m0 960C264.576 832 64 631.424 64 384s200.576-448 448-448c247.392 0 448 200.576 448 448S759.392 832 512 832z m214.848-662.848c-12.192-12.192-32-12.192-44.16 0L512 339.808 341.312 169.152c-12.192-12.192-32-12.192-44.192 0s-12.192 32 0 44.192L467.808 384 297.152 554.656c-12.192 12.192-12.192 32 0 44.192s32 12.192 44.192 0L512 428.192l170.656 170.656c12.192 12.192 31.968 12.192 44.16 0s12.192-32 0-44.192L556.16 384l170.656-170.656c12.224-12.224 12.224-32 0.032-44.192z"  horiz-adv-x="1024" />

    
    <glyph glyph-name="erweima" unicode="&#58889;" d="M117.36826016 408.55515177l371.92033829-2e-8L489.28859843 780.47459004 117.36826016 780.47459004 117.36826016 408.55515177zM210.34901972 687.49473047l185.95971915 0-1e-8-185.95971914L210.34901972 501.53501133 210.34901972 687.49473047zM535.77897823 780.47459004l0-371.92033829 371.92033828 0L907.69931562 780.47459004 535.77897823 780.47459004zM814.71855692 501.53501133L628.75883779 501.53501133 628.75883779 687.49473047l185.95971913 0L814.71855692 501.53501133zM256.83849951 548.02449113l92.97985956-2e-8L349.81835907 641.00525068 256.83849951 641.00525068 256.83849951 548.02449113zM117.36826016-9.855566309999972l371.92033829 0L489.28859843 362.06477197000004 117.36826016 362.06477197000004 117.36826016-9.855566309999972zM210.34901972 269.08491237l185.95971915 4e-8-1e-8-185.95971915L210.34901972 83.12519325999995 210.34901972 269.08491237zM768.22907626 641.00525068L675.24831758 641.00525068l0-92.97985955 92.97985955 0L768.22817716 641.00525068zM535.77897823-9.855566309999972l92.97985956 0L628.75883779 83.12429413999996 535.77897823 83.12429413999996 535.77897823-9.855566309999972zM628.75883779 269.08491237l0-185.95971911 92.97985958 0L721.73869737 269.08491237 628.75883779 269.08491237zM814.71855692 83.12429413999996L721.73869737 83.12429413999996 721.73869737-9.855566309999972l185.95971914 0L907.69841651 176.10505282999998 814.71855692 176.10505282999998 814.71855692 83.12429413999996zM814.71855692 269.08491237l92.97985959 4e-8L907.69841651 362.06477197000004 814.71855692 362.06477197000004 814.71855692 269.08491237zM535.77897823 362.06477197000004l0-92.97985956 92.97985956-4e-8L628.75883779 362.06477197000004 535.77897823 362.06477197000004zM256.83849951 129.61467304999996l92.97985956 0L349.81835907 222.59453262 256.83849951 222.59453262 256.83849951 129.61467304999996z"  horiz-adv-x="1024" />

    
    <glyph glyph-name="fabu" unicode="&#58946;" d="M790.9 107.6l-351 108 351 405-459-405-270 108 864 459-135-675z m-351.1-162v189l108-54-108-135z"  horiz-adv-x="1024" />

    
    <glyph glyph-name="xianhua" unicode="&#59024;" d="M867.388 437.86c-16.592 5.013-33.968-4.32-38.96-20.82-9.688-31.975-22.997-62.15-39.538-89.703-57.707-96.117-158.45-151.241-276.415-151.241-117.997 0-218.76 55.145-276.457 151.282-16.52 27.553-29.808 57.708-39.488 89.62-5.012 16.491-22.438 25.825-38.96 20.822-16.5-5.012-25.823-22.449-20.82-38.96 11.173-36.814 26.545-71.676 45.71-103.62 63.055-105.076 173.214-170.898 298.781-180.312v-147.536c0-17.253 13.98-31.233 31.233-31.233s31.232 13.98 31.232 31.233V114.928c125.524 9.415 235.67 75.217 298.742 180.262 19.175 31.935 34.578 66.837 45.761 103.712 5.002 16.51-4.32 33.947-20.82 38.959zM881.625 674.595c-9.445 22.174-31.242 36.805-55.836 37.283l-9.588 0.09c-55.643 0-106.487-16.714-151.333-35.329-39.183 67.254-75.712 112.12-113.787 139.957a61.58 61.58 0 0 1-6.944 5.164c-17.304 11.042-38.929 12.83-57.768 4.819a61.856 61.856 0 0 1-15.077-9.038c-37.892-27.37-75.661-73.19-115.028-139.631C311.916 695.865 261.906 712 208.296 712l-9.445-0.102c-24.288-0.488-46.077-15.108-55.522-37.262-21.604-50.701-30.45-111.133-25.6-174.757 1.25-16.39 14.935-28.853 31.11-28.853 0.794 0 1.597 0.03 2.41 0.091 17.193 1.312 30.075 16.318 28.763 33.52-4.067 53.376 3.01 103.428 20.486 144.817l8.113 0.08c52.034 0 101.953-19.652 148.62-39.782 14.7-6.324 31.841-0.54 39.65 13.47 40.169 72.042 76.689 119.196 111.662 144.166 0.732 0.519 1.027 1.341 1.708 1.932a31.59 31.59 0 0 1 3-2.45c34.74-25.02 71.005-72.47 110.848-145.04 7.808-14.214 25.194-20.08 40.027-13.533 44.999 19.938 97.56 41.207 151.77 41.207l8.56-0.08c16.49-39.062 23.77-86.205 21.056-136.42-0.935-17.222 12.271-31.944 29.494-32.87 17.09-1.209 31.944 12.262 32.87 29.494 3.253 59.984-5.825 117.04-26.25 164.967zM390.594 563.97c-17.253 0-31.232-13.98-31.232-31.232v-30.47c0-17.253 13.979-31.233 31.232-31.233s31.232 13.98 31.232 31.233v30.47c0.001 17.252-13.98 31.232-31.232 31.232zM634.364 563.97c-17.253 0-31.232-13.98-31.232-31.232v-30.47c0-17.253 13.979-31.233 31.232-31.233s31.232 13.98 31.232 31.233v30.47c0.001 17.252-13.978 31.232-31.232 31.232zM589.5 422.53c-14.305 9.404-33.591 5.388-43.158-8.764-0.132-0.193-13.613-19.754-34.17-19.754-19.988 0-32.433 18.118-33.266 19.378-9.18 14.417-28.284 18.809-42.832 9.75-14.65-9.099-19.154-28.354-10.045-43.005 11.214-18.046 41.969-48.588 86.144-48.588 43.961 0 75.102 30.318 86.57 48.222 9.22 14.394 5.031 33.356-9.243 42.76zM855.132 139.8c-10.28 13.878-29.82 16.806-43.687 6.558L603.229-7.486c-13.868-10.249-16.806-29.81-6.558-43.687 6.131-8.286 15.576-12.668 25.143-12.668a31.096 31.096 0 0 1 18.544 6.11l208.217 153.845c13.866 10.248 16.805 29.808 6.557 43.686zM421.73-7.486L213.514 146.358c-13.888 10.248-33.428 7.32-43.687-6.558-10.249-13.878-7.31-33.438 6.557-43.687L384.6-57.732a31.096 31.096 0 0 1 18.545-6.11c9.567 0 19.012 4.382 25.142 12.668 10.249 13.878 7.31 33.44-6.557 43.688z"  horiz-adv-x="1024" />

    
    <glyph glyph-name="ziliao" unicode="&#59125;" d="M173.568 36.352c-53.248 0-96.768 45.568-96.768 100.864v657.92C76.8 850.432 120.32 896 173.568 896h517.12c53.248 0 96.768-45.568 96.768-100.864v-657.408c0-55.808-43.52-100.864-96.768-100.864h-517.12z m0 799.232c-21.504 0-38.912-18.432-38.912-40.96v-657.408c0-22.528 17.408-40.96 38.912-40.96h517.12c21.504 0 38.912 18.432 38.912 40.96v657.92c0 22.528-17.408 40.96-38.912 40.96h-517.12zM274.432 232.96c-15.872 0-28.672 13.312-28.672 30.208s12.8 30.208 28.672 30.208h315.904c15.872 0 28.672-13.312 28.672-30.208s-12.8-30.208-28.672-30.208H274.432z m0 203.264c-15.872 0-28.672 13.312-28.672 30.208 0 16.384 12.8 30.208 28.672 30.208h315.904c15.872 0 28.672-13.312 28.672-30.208 0-16.384-12.8-30.208-28.672-30.208H274.432z m0 202.752c-15.872 0-28.672 13.312-28.672 30.208 0 16.384 12.8 30.208 28.672 30.208h259.072c15.872 0 28.672-13.312 28.672-30.208 0-16.384-12.8-30.208-28.672-30.208H274.432zM296.448-128c-15.872 0-28.672 13.312-28.672 30.208s12.8 30.208 28.672 30.208h553.984c21.504 0 38.912 18.432 38.912 40.96v701.44c0 16.384 12.8 30.208 28.672 30.208s28.672-13.312 28.672-30.208v-701.44c0-55.808-43.52-100.864-96.768-100.864H296.448z"  horiz-adv-x="1024" />

    
    <glyph glyph-name="cha1" unicode="&#59035;" d="M512 896a512 512 0 1 1 512-512A512 512 0 0 1 512 896zM256 540.416a71.168 71.168 0 1 0 71.168-71.168A70.912 70.912 0 0 0 256 540.416zM655.872 128A147.456 147.456 0 0 1 512 222.976a148.224 148.224 0 0 1-143.36-93.44h-55.552c19.712 80.384 100.864 140.8 198.912 140.8s179.2-59.904 198.912-139.776z m40.96 341.504A71.168 71.168 0 1 0 768 540.416a71.424 71.424 0 0 0-71.168-71.168z"  horiz-adv-x="1024" />

    
    <glyph glyph-name="henhao" unicode="&#59036;" d="M512 896a512 512 0 1 1 512-512A512 512 0 0 1 512 896zM256 540.4159999999999a71.168 71.168 0 1 0 71.168-71.168A70.912 70.912 0 0 0 256 540.4159999999999z m256-440.832a199.168 199.168 0 0 0-199.168 199.168h398.336A199.168 199.168 0 0 0 512 99.58399999999995z m184.832 369.664A71.168 71.168 0 1 0 768 540.4159999999999a71.424 71.424 0 0 0-71.168-71.168z"  horiz-adv-x="1024" />

    
    <glyph glyph-name="yinliang2" unicode="&#58978;" d="M498.303376-32.303454a109.273288 109.273288 0 0 0-60.800625 18.40203L224.280976 128.249756H110.102478A109.732839 109.732839 0 0 0 0.499512 237.852722V530.147278A109.732839 109.732839 0 0 0 110.102478 639.750244H224.280976l213.221775 142.15118A109.612956 109.612956 0 0 0 607.906341 690.700488v-613.400976a109.732839 109.732839 0 0 0-109.602965-109.602966zM110.102478 603.215922a73.148566 73.148566 0 0 1-73.068644-73.068644v-292.294556a73.148566 73.148566 0 0 1 73.068644-73.068644h125.237698l222.42279-148.28519a73.078634 73.078634 0 0 1 113.609054 60.800624v613.400976a73.078634 73.078634 0 0 1-113.609054 60.800624L235.340176 603.215922zM704.202302 137.8304a18.272156 18.272156 0 0 0-8.581619 34.4064 221.5936 221.5936 0 0 1 0.229776 391.437737 18.272156 18.272156 0 0 0 17.173229 32.248507 258.117932 258.117932 0 0 0-0.279727-455.954732 18.162263 18.162263 0 0 0-8.541659-2.137912zM832.676839 30.764956a18.262166 18.262166 0 0 0-10.989268 32.837932 384.964059 384.964059 0 0 1 110.322263 131.701385 382.1568 382.1568 0 0 1-0.089912 345.582517 384.764254 384.764254 0 0 1-110.552039 131.751337 18.272156 18.272156 0 1 0 21.978537 29.171512 421.588293 421.588293 0 0 0 121.131707-144.339044 418.59122 418.59122 0 0 0 0.089912-378.770107 421.588293 421.588293 0 0 0-120.881951-144.269112 18.142283 18.142283 0 0 0-11.009249-3.66642z"  horiz-adv-x="1024" />

    
    <glyph glyph-name="xiangji" unicode="&#58940;" d="M942.08 609.28c-25.031 25.031-54.613 36.409-88.747 36.409H744.107l-25.031 65.991c-6.827 15.929-18.205 29.582-34.134 40.96s-34.133 18.204-50.062 18.204H384.569c-18.205 0-34.133-6.826-50.062-18.204-15.93-11.378-27.307-25.031-34.134-40.96l-27.306-65.991H161.564c-34.133 0-63.715-11.378-88.746-36.409s-36.41-54.613-36.41-88.747v-439.182c0-34.133 11.379-63.715 36.41-88.747s54.613-36.408 88.746-36.408h691.77c34.133 0 63.715 11.377 88.746 36.408s36.409 54.614 36.409 88.747V520.533c0 34.134-11.378 63.716-36.409 88.747zM507.449 101.831c-113.778 0-207.076 93.298-207.076 207.076s93.298 207.075 207.076 207.075 207.075-93.298 207.075-207.075S621.227 101.83 507.45 101.83zM507.449 445.44c-77.369 0-138.809-61.44-138.809-138.809s61.44-138.809 138.809-138.809 138.809 61.44 138.809 138.81c0 77.368-61.44 138.808-138.81 138.808z"  horiz-adv-x="1024" />

    
    <glyph glyph-name="kai" unicode="&#58941;" d="M1339.076923 801.013575H509.683258c-228.894118 0-414.696833-185.802715-414.696833-414.696833s185.802715-414.696833 414.696833-414.696832h829.393665c228.894118 0 414.696833 185.802715 414.696833 414.696832S1567.971041 801.013575 1339.076923 801.013575zM1332.126697-7.529412c-217.310407 0-393.846154 176.535747-393.846154 393.846154s176.535747 393.846154 393.846154 393.846154 393.846154-176.535747 393.846154-393.846154-176.535747-393.846154-393.846154-393.846154z"  horiz-adv-x="1811" />

    
    <glyph glyph-name="jiahao1" unicode="&#59075;" d="M896 352H128c-17.6 0-32 14.4-32 32s14.4 32 32 32h768c17.6 0 32-14.4 32-32s-14.4-32-32-32zM512-32c-17.6 0-32 14.4-32 32V768c0 17.6 14.4 32 32 32s32-14.4 32-32v-768c0-17.6-14.4-32-32-32z"  horiz-adv-x="1024" />

    
    <glyph glyph-name="renwu-ren" unicode="&#59209;" d="M652.8 361.6C723.2 406.4 768 486.4 768 576c0 140.8-115.2 256-256 256S256 716.8 256 576c0-89.6 44.8-169.6 115.2-214.4C192 304 64 134.4 64-64h64c0 211.2 172.8 384 384 384s384-172.8 384-384h64c0 198.4-128 368-307.2 425.6zM512 384c-105.6 0-192 86.4-192 192s86.4 192 192 192 192-86.4 192-192-86.4-192-192-192z"  horiz-adv-x="1024" />

    
    <glyph glyph-name="renwu" unicode="&#58925;" d="M527.45467345 690.30226159c-35.55450431 0-65.86647025-12.67890963-91.04919402-37.83073481-25.13122542-25.14667543-37.72258767-55.5667878-37.72258767-91.1367414v-96.7294693c0-35.68325051 12.596512-65.99006669 37.72258767-91.24488855 25.18272376-25.15182518 55.4946897-37.72258767 91.04919402-37.72258694 35.53390526 0 65.86647025 12.57076248 91.02859497 37.72258694 25.13122542 25.25482186 37.72258767 55.5667878 37.72258767 91.24488855V561.33478537c0 35.57510408-12.596512 65.99006669-37.72258767 91.13674141C593.31599394 677.6233519699999 562.98342896 690.30226159 527.44952368 690.30226159z m0-419.15073434c-46.61636368 0-91.56417879-3.75938407-134.91039221-11.17515557-43.3668139-7.52391791-81.13575014-17.95234657-113.32225799-31.38313285-12.88490295-5.37643432-24.39994779-11.07215889-34.55028573-17.09232346-10.11428817-6.128311-17.83905037-11.60774198-23.12278756-16.44344346-5.27343766-4.83570075-9.25426507-9.1358184-11.95793152-12.6789089-2.68306741-3.65638741-4.02717598-6.55574767-4.02717599-8.70323198v-63.73443595c0-8.81652817 3.16715216-16.44344346 9.44480913-22.78804802 6.31885505-6.23130766 13.88397249-9.45510864 22.7622985-9.45510865h579.35714722c8.87832674 0 16.43314394 3.22380098 22.76229849 9.45510865 6.27765623 6.34460457 9.44480913 13.97151915 9.44480913 22.78804802v63.51814238c0 2.14748359-1.36470762 5.04684457-4.04777503 8.70323197-2.67791765 3.54824098-6.67419434 7.84320815-11.94248223 12.68405939-5.27858742 4.83570075-13.00334963 10.31513246-23.12793732 16.44344345-10.14518746 6.0150148-21.67568231 11.71073937-34.56058454 17.30346656-32.16590881 13.43078629-69.9554441 23.85921494-113.30165895 31.38313285-43.34621413 7.41577148-88.29402924 11.17515556-134.9000934 11.17515557z m0 483.63704697c35.01892122 0 67.34962455-8.70323197 96.92001407-26.00669853 29.6115876-17.30346656 53.06396492-40.73524483 70.27473433-70.39833077 17.25196822-29.56008927 25.90885163-61.90109286 25.90885162-97.04875954v-96.7294693c0-26.86672235-5.18074052-52.33783705-15.6040194-76.30519843-10.37178056-24.0755078-24.87373376-44.92721534-43.49040962-62.76626571 48.95954108-7.74021149 92.43965117-19.02351347 130.51242837-34.07135073 38.02127814-15.04268678 67.82855955-32.77873977 89.37549568-53.3060073 21.53148683-20.41912111 32.33585382-42.02270531 32.33585381-64.69745645v-63.51814238c0-26.65557853-9.42935912-49.4384768-28.29322854-68.35384385-18.84841942-18.91536704-41.64161649-28.37562546-68.27144623-28.37562545H237.77609983c-26.62982973 0-49.41787703 9.4602584-68.27144623 28.37562545C150.6407849 60.50241828000003 141.21142578 83.28531654999995 141.21142578 109.94089507000001v63.7292862c0 22.67990089 10.77346769 44.28348509 32.31525406 64.7026062 21.56753516 20.52726754 51.328468 38.26332125 89.26734923 53.3060073 37.98522982 15.04783654 81.43444062 26.33113853 130.37338265 33.85505717a196.48704505 196.48704505 0 0 0-43.22776819 62.87441214c-10.41812913 23.96736137-15.62461845 49.33032966-15.62461845 76.197052V561.33478537c0 35.03437051 8.64143339 67.49382003 25.93460116 97.04875955 17.25196822 29.66308594 40.67344698 53.19786088 70.26443482 70.39833077C460.08959961 746.0853422499999 492.37910486 754.78857422 527.45467345 754.78857422z"  horiz-adv-x="1066" />

    
    <glyph glyph-name="yiban" unicode="&#58928;" d="M512 896C230.4 896 0 665.6 0 384s230.4-512 512-512 512 230.4 512 512S793.6 896 512 896zM256 530.285714c0 40.228571 32.914286 73.142857 73.142857 73.142857s73.142857-32.914286 73.142857-73.142857-32.914286-73.142857-73.142857-73.142857-73.142857 32.914286-73.142857 73.142857z m438.857143-365.714285H329.142857c-21.942857 0-36.571429 18.285714-36.571428 36.571428s18.285714 36.571429 36.571428 36.571429h365.714286c21.942857 0 36.571429-18.285714 36.571428-36.571429s-14.628571-36.571429-36.571428-36.571428z m0 292.571428c-40.228571 0-73.142857 32.914286-73.142857 73.142857s32.914286 73.142857 73.142857 73.142857 73.142857-32.914286 73.142857-73.142857-32.914286-73.142857-73.142857-73.142857z"  horiz-adv-x="1024" />

    
    <glyph glyph-name="wancheng" unicode="&#58966;" d="M510.2-53.5c-242.5 0-439.7 197.3-439.7 439.7C70.4 628.7 267.7 826 510.2 826s439.7-197.3 439.7-439.7c0-242.5-197.2-439.8-439.7-439.8z m0 844.2c-223 0-404.5-181.4-404.5-404.5s181.4-404.5 404.5-404.5 404.5 181.4 404.5 404.5-181.5 404.5-404.5 404.5zM428.8 200.7L257.3 412.9c-6.1 7.6-4.9 18.7 2.6 24.8 7.6 6.1 18.7 5 24.8-2.6L434 250.3l336.1 271.5c7.6 6.1 18.7 5 24.8-2.6 6.1-7.6 4.9-18.7-2.6-24.8L428.8 200.7z"  horiz-adv-x="1024" />

    
    <glyph glyph-name="zhifubao1" unicode="&#58893;" d="M201.96352 893.36832h621.426347c109.776213 0 199.396693-89.545387 199.396693-199.227733v-496.841387c-73.586347 25.56416-232.292693 80.04096-343.200427 116.67456 61.989547 107.38688 88.446293 207.81056 88.446294 207.81056H571.27936v70.951253h241.170773v31.981227H571.27936v117.179733h-109.06624v-117.179733h-240.9984v-31.981227h240.9984v-70.951253h-209.629867v-37.947733H643.601067c-7.47008-64.34304-28.552533-101.23776-57.47712-143.604054-197.573973 53.58592-349.805227 86.560427-449.742507 5.126827-101.9392-82.67264-47.496533-341.819733 239.361707-283.936427 106.361173 21.63712 187.79648 90.50624 248.14592 168.748374L1022.339413 58.624c-7.819947-102.597973-94.230187-184.01792-198.949546-184.01792H201.96352c-109.58848 0-199.364267 89.622187-199.364267 199.058773v620.475734C2.599253 803.822933 92.37504 893.36832 201.96352 893.36832m334.44352-623.445333c-186.79808 101.510827-293.95456 91.564373-350.20288 58.663253-61.467307-36.04992-89.17504-120.54528-23.642453-175.49312 15.378773-12.63616 37.843627-22.091093 67.587413-28.639573 179.669333-40.18688 306.25792 145.46944 306.25792 145.46944"  horiz-adv-x="1024" />

    
    <glyph glyph-name="chaping-" unicode="&#58952;" d="M512 896C229.673147 896 0 666.326853 0 384s229.767339-512 512-512 512.12559 229.673147 512.12559 512S794.326853 896 512 896zM283.14319 443.30999A119.750291 119.750291 0 0 0 261.855645 472.132949q-12.559024 22.229472-23.265592 45.463666-3.579322 7.7238-7.001655 15.69878a807.482431 807.482431 0 0 0-29.136935 80.283559l206.501747-119.907279q-7.441222-9.0111-14.725455-16.829092a257.459987 257.459987 0 0 0-23.893543-22.794628 137.018949 137.018949 0 0 0-36.483964-21.381738q-2.480407-0.973324-4.929416-1.695468a42.480898 42.480898 0 0 0-25.871589 0.37677 45.746244 45.746244 0 0 0-6.781873 2.857178 51.58619 51.58619 0 0 0-12.99859 9.13669z m418.466671-282.954805a25.118047 25.118047 0 0 0-35.102472 6.624885 162.827743 162.827743 0 0 1-64.082418 53.375851 213.03244 213.03244 0 0 1-180.724352 0 162.827743 162.827743 0 0 1-64.082418-53.375851 25.275035 25.275035 0 0 0-41.758754 28.477586 213.503403 213.503403 0 0 0 83.831483 70.424726 262.358006 262.358006 0 0 0 224.61814 0 213.503403 213.503403 0 0 0 83.862881-70.518918 25.118047 25.118047 0 0 0-6.624885-35.008279z m90.770344 372.846017a679.568774 679.568774 0 0 0-30.267247-61.036855q-12.370638-22.229472-25.526216-32.559269a46.56258 46.56258 0 0 0-8.791317-5.525971 42.951861 42.951861 0 0 0-37.677071-1.53848 135.574661 135.574661 0 0 0-36.483964 21.413135 299.940884 299.940884 0 0 0-38.618998 39.62372l206.501748 119.907279a806.666094 806.666094 0 0 0-29.19973-80.283559zM283.14319 443.184399h-0.156988zM370.334212 453.890967a137.018949 137.018949 0 0 0-36.483964-21.381738 137.018949 137.018949 0 0 1 36.483964 21.381738 257.459987 257.459987 0 0 1 23.893543 22.794628 257.240204 257.240204 0 0 0-23.893543-22.794628zM303.049243 431.190532a42.480898 42.480898 0 0 1 25.871589-0.376771 42.480898 42.480898 0 0 0-25.871589 0.376771zM792.31741 533.201202a679.819955 679.819955 0 0 0-30.267247-61.036855 679.568774 679.568774 0 0 1 30.267247 61.036855zM736.523947 439.605078q13.12418 10.298399 25.526216 32.559269-12.370638-22.229472-25.526216-32.559269z"  horiz-adv-x="1024" />

    
    <glyph glyph-name="wodeActive" unicode="&#58885;" d="M859.4-15.600000000000023H162.8c-14.4 0-28.8 7.2-37.8 18-9 12.6-12.6 27-9 41.4 36 183.6 185.4 320.4 365.4 334.8 60.3 0 125.55-7.65 190.8-34.2 18.9-7.65 25.2-12.6 36-18 104.4-59.4 176.4-162 199.8-282.6 3.6-14.4 0-28.8-10.8-41.4-9-10.8-23.4-18-37.8-18zM512 362.4c-113.4 0-207 93.6-207 207s93.6 207 207 207 207-93.6 207-207-93.6-207-207-207z"  horiz-adv-x="1024" />

    
    <glyph glyph-name="xiazai" unicode="&#58962;" d="M826.76 97.184c0-15.18-12.307-27.487-27.488-27.487H225.12c-15.18 0-27.488 12.307-27.488 27.487 0 15.18 12.307 27.488 27.488 27.488h574.152c15.182 0 27.488-12.307 27.488-27.488z m-314.625 77.513c-15.18 0-27.487 12.308-27.487 27.489V670.88c0 15.18 12.306 27.487 27.487 27.487s27.487-12.306 27.487-27.487v-468.695c0-15.181-12.306-27.489-27.487-27.489zM531.572 182.927c-10.735-10.734-28.139-10.734-38.873 0l-206.3 206.3c-10.733 10.733-10.733 28.138 0 38.873 10.735 10.733 28.14 10.733 38.874 0l206.299-206.3c10.734-10.734 10.734-28.138 0-38.873zM492.699 182.928c-10.735 10.734-10.735 28.139 0 38.873l206.298 206.3c10.734 10.733 28.14 10.733 38.874 0 10.733-10.735 10.733-28.14 0-38.875l-206.3-206.299c-10.734-10.734-28.138-10.734-38.872 0.001z"  horiz-adv-x="1024" />

    
    <glyph glyph-name="jinggao1" unicode="&#58951;" d="M867.2 20.1H155.8c-32.5 0-61.7 16.8-77.9 45s-16.3 61.8 0 90l355.7 616.1c16.3 28.2 45.4 45 77.9 45s61.7-16.8 77.9-45l355.7-616.1c16.3-28.2 16.3-61.8 0-90-16.2-28.1-45.3-45-77.9-45zM511.5 760.2c-5.9 0-20.6-1.7-29.4-17L126.4 127.1c-8.9-15.3-3-28.9 0-34 3-5.1 11.7-17 29.4-17h711.4c17.7 0 26.5 11.9 29.4 17 3 5.1 8.9 18.7 0 34L541 743.2c-8.9 15.4-23.6 17-29.5 17z m-53.7-3zM511.5 277.9c-19.3 0-35 15.7-35 35V556.3c0 19.3 15.7 35 35 35s35-15.7 35-35v-243.4c0-19.3-15.7-35-35-35zM511.5 187m-44.6 0a44.6 44.6 0 1 1 89.2 0 44.6 44.6 0 1 1-89.2 0Z"  horiz-adv-x="1024" />

    
    <glyph glyph-name="jiaguanzhu1" unicode="&#58913;" d="M964.465116 173.643411l-214.325581-261.953489c-23.813953-31.751938-63.503876-23.813953-87.31783 0L512 22.821705c-15.875969 7.937984-23.813953 31.751938-7.937984 47.627907 7.937984 15.875969 31.751938 23.813953 47.627906 15.875969l150.821706-127.007752 214.325581 261.953489c7.937984 7.937984 23.813953 7.937984 31.751938 7.937984 7.937984 0 23.813953-15.875969 23.813954-23.813953 0-15.875969 0-23.813953-7.937985-31.751938zM504.062016 300.651163c-7.937984-7.937984-15.875969 0-23.813954 0-166.697674 0-373.085271-158.75969-373.085271-341.333334 0-15.875969-15.875969-31.751938-31.751938-31.751938-7.937984 0-15.875969 0-23.813954 7.937985-7.937984 7.937984-7.937984 15.875969-7.937984 23.813953C43.658915 110.139535 170.666667 284.775194 353.24031 340.341085c-87.317829 47.627907-134.945736 142.883721-134.945736 246.07752 0 158.75969 127.007752 285.767442 285.767442 285.767442s285.767442-127.007752 285.767441-285.767442-127.007752-285.767442-285.767441-285.767442z m0 500.093023c-119.069767 0-214.325581-95.255814-214.325582-214.325581 0-119.069767 95.255814-214.325581 214.325582-214.325582s214.325581 95.255814 214.325581 214.325582c0 119.069767-95.255814 214.325581-214.325581 214.325581z m0 0"  horiz-adv-x="1024" />

    
    <glyph glyph-name="zxfz-dxys" unicode="&#58895;" d="M390.967341-96.14930000000004c-12.74028 0-19.11042 6.37014-25.48056 12.74028-95.5521 108.292379-248.435459 108.292379-254.805599 108.292379-19.11042 0-38.22084 19.11042-38.22084 38.22084s19.11042 38.22084 38.22084 38.22084c6.37014 0 191.104199 0 305.766718-133.772939 12.74028-12.74028 12.74028-38.22084 0-50.96112-12.74028-12.74028-19.11042-12.74028-25.480559-12.74028z m242.065318 0c-6.37014 0-19.11042 6.37014-25.480559 12.74028-12.74028 12.74028-12.74028 38.22084 0 50.96112 121.032659 133.772939 299.396579 133.772939 305.766718 133.772939 19.11042 0 38.22084-19.11042 38.22084-38.22084s-19.11042-38.22084-38.22084-38.22084c0 0-152.883359 0-254.805599-108.292379-6.37014-12.74028-12.74028-12.74028-25.48056-12.74028z m-191.104199 184.734059c-121.032659 19.11042-229.325039 89.18196-293.026438 203.844479C66.090202 426.202177 46.979782 598.195956 104.311042 725.598756c6.37014 12.74028 19.11042 19.11042 31.8507 25.48056h12.74028c70.07154 0 133.772939-12.74028 191.104199-38.22084C384.597201 782.930016 429.18818 846.631415 486.51944 884.852255c0 0 6.37014 6.37014 12.74028 6.37014 12.74028 6.37014 25.48056 6.37014 31.8507 0 0 0 6.37014 0 6.37014-6.37014 50.96112-38.22084 101.92224-95.5521 146.513219-178.363919 57.33126 25.48056 127.402799 38.22084 197.474339 38.22084h12.74028c12.74028 0 25.48056-6.37014 31.8507-25.48056 50.96112-121.032659 31.8507-299.396579-44.59098-433.169518-70.07154-114.662519-171.993779-184.734059-299.396578-203.844479M550.22084-89.77916000000005s0-38.22084-38.22084-38.22084-38.22084 38.22084-38.22084 38.22084v210.214619h70.07154v-210.214619z"  horiz-adv-x="1024" />

    
    <glyph glyph-name="sousuo1" unicode="&#58897;" d="M870.5 68.6L682.8 256.3c45 55.4 69.5 124 69.5 196.4 0 83.5-32.5 161.9-91.5 220.9s-137.5 91.5-221 91.5-161.9-32.5-220.9-91.5-91.5-137.4-91.5-220.9 32.5-161.9 91.5-220.9 137.4-91.5 220.9-91.5c73.6 0 143.3 25.3 199.2 71.8l187.5-187.5c12.1-12.1 31.9-12.1 44 0 12.1 12 12.1 31.8 0 44zM439.8 202.4c-137.9 0-250.1 112.2-250.1 250.1s112.2 250.2 250.1 250.2 250.1-112.2 250.1-250.1-112-250.2-250.1-250.2z"  horiz-adv-x="1024" />

    
    <glyph glyph-name="ziliao1" unicode="&#58904;" d="M917.333333 627.2c0 4.266667-4.266667 12.8-4.266666 17.066667l-204.8 204.8c-4.266667 0-12.8 4.266667-17.066667 4.266666H204.8c-64 0-98.133333-34.133333-98.133333-98.133333v-746.666667c0-64 34.133333-98.133333 98.133333-98.133333h610.133333c64 0 98.133333 34.133333 98.133334 98.133333V627.2zM853.333333 640h-93.866666c-38.4 0-55.466667 17.066667-55.466667 51.2V789.333333L853.333333 640z m-34.133333-682.666667H204.8c-38.4 0-55.466667 17.066667-55.466667 55.466667V755.2c0 38.4 17.066667 55.466667 55.466667 55.466667h456.533333v-119.466667c0-59.733333 34.133333-93.866667 98.133334-93.866667h115.2v-584.533333c0-38.4-17.066667-55.466667-55.466667-55.466667zM682.666667 256H341.333333c-12.8 0-21.333333-8.533333-21.333333-21.333333s8.533333-21.333333 21.333333-21.333334h341.333334c12.8 0 21.333333 8.533333 21.333333 21.333334s-8.533333 21.333333-21.333333 21.333333zM682.666667 85.333333H341.333333c-12.8 0-21.333333-8.533333-21.333333-21.333333s8.533333-21.333333 21.333333-21.333333h341.333334c12.8 0 21.333333 8.533333 21.333333 21.333333s-8.533333 21.333333-21.333333 21.333333zM682.666667 554.666667H341.333333c-12.8 0-21.333333-8.533333-21.333333-21.333334s8.533333-21.333333 21.333333-21.333333h341.333334c12.8 0 21.333333 8.533333 21.333333 21.333333S695.466667 554.666667 682.666667 554.666667zM682.666667 384H341.333333c-12.8 0-21.333333-8.533333-21.333333-21.333333s8.533333-21.333333 21.333333-21.333334h341.333334c12.8 0 21.333333 8.533333 21.333333 21.333334s-8.533333 21.333333-21.333333 21.333333z"  horiz-adv-x="1024" />

    
    <glyph glyph-name="left-line" unicode="&#58917;" d="M689.5616 768.1024c-5.2224 0-10.5472-1.9456-14.4384-5.9392l-349.184-349.184c-15.9744-15.9744-15.9744-41.8816 0-57.9584l349.184-349.184c3.9936-3.9936 9.216-5.9392 14.4384-5.9392s10.5472 1.9456 14.4384 5.9392c7.9872 7.9872 7.9872 20.992 0 28.9792L369.3568 369.5616c-7.9872 7.9872-7.9872 20.992 0 28.9792L704.1024 733.184c7.9872 7.9872 7.9872 20.992 0 28.9792-3.9936 3.8912-9.3184 5.9392-14.5408 5.9392z"  horiz-adv-x="1024" />

    
    <glyph glyph-name="right-line" unicode="&#58923;" d="M334.4384 768.1024c-5.2224 0-10.5472-1.9456-14.4384-5.9392-7.9872-7.9872-7.9872-20.992 0-28.9792l334.6432-334.6432c7.9872-7.9872 7.9872-20.992 0-28.9792L319.8976 34.81600000000003c-7.9872-7.9872-7.9872-20.992 0-28.9792 3.9936-3.9936 9.216-5.9392 14.4384-5.9392s10.5472 1.9456 14.4384 5.9392l349.184 349.184c15.9744 15.9744 15.9744 41.8816 0 57.9584l-349.184 349.184c-3.8912 3.8912-9.1136 5.9392-14.336 5.9392z"  horiz-adv-x="1024" />

    
    <glyph glyph-name="yinliang3" unicode="&#58902;" d="M512-128A512 512 0 1 0 1024 384 512.675165 512.675165 0 0 0 512-128z m0 990.241758A478.241758 478.241758 0 1 1 990.241758 384 478.691868 478.691868 0 0 1 512 862.241758zM693.619341 231.862857a22.505495 22.505495 0 0 0 0 34.658462 163.84 163.84 0 0 1 0 236.082637 22.505495 22.505495 0 0 0 0 34.658462 23.630769 23.630769 0 0 0 35.333626 0 210.876484 210.876484 0 0 0 67.516484-149.436484 202.549451 202.549451 0 0 0-67.516484-148.986374 26.331429 26.331429 0 0 0-17.554286-6.976703 11.477802 11.477802 0 0 0-17.554285 0z m-70.442198 38.034286a27.906813 27.906813 0 0 0-17.554286 6.976703 22.505495 22.505495 0 0 0 0 34.658462 99.474286 99.474286 0 0 1 0 145.835604 22.505495 22.505495 0 0 0 0 34.658462 23.630769 23.630769 0 0 0 35.333627 0 141.55956 141.55956 0 0 0 0-211.551649c-7.201758-6.976703-10.802637-10.352527-17.554286-10.352527z m-130.531868 357.612308c31.732747 24.305934 56.488791 10.352527 56.488791-27.681759v-433.905934c0-38.259341-24.756044-48.611868-52.887912-24.305934L369.09011 245.591209h-70.442198a70.217143 70.217143 0 0 0-70.442198 69.316923v142.45978a69.992088 69.992088 0 0 0 70.442198 69.316923h67.516484z m0 0"  horiz-adv-x="1024" />

    
    <glyph glyph-name="shijian1" unicode="&#58977;" d="M512 32c194.4 0 352 157.6 352 352S706.4 736 512 736 160 578.4 160 384s157.6-352 352-352z m0-64C282.24-32 96 154.24 96 384S282.24 800 512 800s416-186.24 416-416-186.24-416-416-416zM512 352h192a32 32 0 0 0 0-64h-224a32 32 0 0 0-32 32V608a32 32 0 0 0 64 0v-256z"  horiz-adv-x="1024" />

    
    <glyph glyph-name="weibiaoti2zhuanhuan" unicode="&#58907;" d="M512 46.5c-19.378125 0-38.390625 1.209375-57.065625 3.31875l0.871875-1.715625-147.9375-76.275C302.721875-33.99374999999998 295.409375-37.875 287-37.875c-15.525 0-28.125 12.6-28.125 28.125l0 122.7375C140.24375 181.33124999999995 62 295.85625000000005 62 426.1875 62 635.8875 263.459375 805.875 512 805.875c248.5125 0 450-169.9875 450-379.6875C962 216.48749999999995 760.5125 46.5 512 46.5zM512 749.625C294.5375 749.625 118.25 604.8375 118.25 426.1875c0-112.246875 70.0875-210.628125 175.809375-268.621875C306.06875 154.38750000000005 315.125 143.89687500000002 315.125 130.875l0-92.053125c0 0 90.95625 55.378125 109.2375 63.28125l59.0625 2.41875C492.93125 103.93124999999998 502.26875 102.75 512 102.75c217.4625 0 393.75 144.815625 393.75 323.4375C905.75 604.8375 729.4625 749.625 512 749.625zM722.9375 384c-23.2875 0-42.1875 18.9-42.1875 42.1875 0 23.315625 18.9 42.1875 42.1875 42.1875 23.315625 0 42.1875-18.871875 42.1875-42.1875C765.125 402.9 746.225 384 722.9375 384zM526.0625 384c-23.2875 0-42.1875 18.9-42.1875 42.1875 0 23.315625 18.871875 42.1875 42.1875 42.1875 23.315625 0 42.1875-18.871875 42.1875-42.1875C568.25 402.9 549.35 384 526.0625 384zM329.1875 384C305.871875 384 287 402.9 287 426.1875 287 449.503125 305.871875 468.375 329.1875 468.375c23.2875 0 42.1875-18.871875 42.1875-42.1875C371.375 402.9 352.475 384 329.1875 384z"  horiz-adv-x="1024" />

    
    <glyph glyph-name="lower-triangle" unicode="&#58916;" d="M233.583 533.769l499.661 0-250.22699999-298.81-249.43400001 298.81zM233.583 533.769z"  horiz-adv-x="1000" />

    
    </font>
</defs>
</svg>
